<svg width="351" height="377" fill="none" xmlns="http://www.w3.org/2000/svg"><path d="M1.513 3.025a1.513 1.513 0 100-3.025 1.513 1.513 0 000 3.025zm17.371 0a1.513 1.513 0 100-3.025 1.513 1.513 0 000 3.025zm17.383 0a1.513 1.513 0 100-3.025 1.513 1.513 0 000 3.025zm17.371 0a1.513 1.513 0 100-3.025 1.513 1.513 0 000 3.025zm17.372 0A1.513 1.513 0 1071.008 0a1.513 1.513 0 000 3.025zm17.37 0a1.513 1.513 0 100-3.025 1.513 1.513 0 000 3.025zm18.884-1.512c0 .832-.681 1.512-1.513 1.512-.832 0-1.513-.68-1.513-1.512S104.919 0 105.751 0c.832 0 1.513.68 1.513 1.513zm17.371 0c0 .832-.681 1.512-1.513 1.512-.832 0-1.513-.68-1.513-1.512S122.29 0 123.122 0c.845 0 1.513.68 1.513 1.513zm15.871 1.512a1.512 1.512 0 100-3.024 1.512 1.512 0 000 3.024zm17.371 0a1.512 1.512 0 100-3.024 1.512 1.512 0 000 3.024zm17.371 0a1.512 1.512 0 100-3.024 1.512 1.512 0 000 3.024zm17.371 0a1.512 1.512 0 100-3.024 1.512 1.512 0 000 3.024zm17.371 0a1.512 1.512 0 100-3.024 1.512 1.512 0 000 3.024zm17.371 0a1.512 1.512 0 100-3.024 1.512 1.512 0 000 3.024zm18.883-1.512c0 .832-.68 1.512-1.512 1.512s-1.513-.68-1.513-1.512S243.9 0 244.732 0c.844 0 1.512.68 1.512 1.513zm15.871 1.512a1.513 1.513 0 100-3.025 1.513 1.513 0 000 3.025zm17.371 0a1.513 1.513 0 100-3.025 1.513 1.513 0 000 3.025zm18.884-1.512c0 .832-.681 1.512-1.513 1.512-.832 0-1.513-.68-1.513-1.512S296.025 0 296.857 0c.832 0 1.513.68 1.513 1.513zm15.858 1.512a1.513 1.513 0 100-3.025 1.513 1.513 0 000 3.025zm17.371 0a1.513 1.513 0 100-3.025 1.513 1.513 0 000 3.025zm17.371 0a1.513 1.513 0 100-3.026 1.513 1.513 0 000 3.026zM1.513 20.018a1.513 1.513 0 100-3.025 1.513 1.513 0 000 3.025zm17.371 0a1.513 1.513 0 100-3.025 1.513 1.513 0 000 3.025zm17.383 0a1.513 1.513 0 100-3.025 1.513 1.513 0 000 3.025zm17.371 0a1.513 1.513 0 100-3.025 1.513 1.513 0 000 3.025zm17.372 0a1.513 1.513 0 100-3.025 1.513 1.513 0 000 3.025zm17.37 0a1.513 1.513 0 100-3.025 1.513 1.513 0 000 3.025zm18.884-1.512c0 .831-.681 1.512-1.513 1.512-.832 0-1.513-.68-1.513-1.512s.681-1.513 1.513-1.513c.832.012 1.513.68 1.513 1.513zm17.371 0c0 .831-.681 1.512-1.513 1.512-.832 0-1.513-.68-1.513-1.512s.681-1.513 1.513-1.513c.845.012 1.513.68 1.513 1.513zm15.871 1.512a1.512 1.512 0 100-3.024 1.512 1.512 0 000 3.024zm17.371 0a1.512 1.512 0 100-3.024 1.512 1.512 0 000 3.024zm17.371 0a1.512 1.512 0 100-3.024 1.512 1.512 0 000 3.024zm17.371 0a1.512 1.512 0 100-3.024 1.512 1.512 0 000 3.024zm17.371 0a1.512 1.512 0 100-3.024 1.512 1.512 0 000 3.024zm17.371 0a1.512 1.512 0 100-3.024 1.512 1.512 0 000 3.024zm18.883-1.512c0 .831-.68 1.512-1.512 1.512s-1.513-.68-1.513-1.512.681-1.513 1.513-1.513c.844.012 1.512.68 1.512 1.513zm15.871 1.512a1.513 1.513 0 100-3.025 1.513 1.513 0 000 3.025zm17.371 0a1.513 1.513 0 100-3.025 1.513 1.513 0 000 3.025zm18.884-1.512c0 .831-.681 1.512-1.513 1.512-.832 0-1.513-.68-1.513-1.512s.681-1.513 1.513-1.513c.832.012 1.513.68 1.513 1.513zm15.858 1.512a1.513 1.513 0 100-3.025 1.513 1.513 0 000 3.025zm17.371 0a1.513 1.513 0 100-3.025 1.513 1.513 0 000 3.025zm17.371 0a1.513 1.513 0 100-3.026 1.513 1.513 0 000 3.026zM1.513 37.024a1.513 1.513 0 100-3.026 1.513 1.513 0 000 3.026zm17.371 0a1.513 1.513 0 100-3.026 1.513 1.513 0 000 3.026zm17.383 0a1.513 1.513 0 100-3.026 1.513 1.513 0 000 3.026zm17.371 0a1.513 1.513 0 100-3.026 1.513 1.513 0 000 3.026zm17.372 0a1.513 1.513 0 10-.001-3.026 1.513 1.513 0 000 3.026zm17.37 0a1.513 1.513 0 100-3.026 1.513 1.513 0 000 3.026zm18.884-1.514c0 .833-.681 1.514-1.513 1.514a1.518 1.518 0 01-1.513-1.513c0-.832.681-1.513 1.513-1.513a1.51 1.51 0 011.513 1.513zm17.371 0c0 .833-.681 1.514-1.513 1.514a1.518 1.518 0 01-1.513-1.513c0-.832.681-1.513 1.513-1.513.845 0 1.513.668 1.513 1.513zm15.871 1.514a1.512 1.512 0 100-3.025 1.512 1.512 0 000 3.025zm17.371 0a1.512 1.512 0 100-3.025 1.512 1.512 0 000 3.025zm17.371 0a1.512 1.512 0 100-3.025 1.512 1.512 0 000 3.025zm17.371 0a1.512 1.512 0 100-3.025 1.512 1.512 0 000 3.025zm17.371 0a1.512 1.512 0 100-3.025 1.512 1.512 0 000 3.025zm17.371 0a1.512 1.512 0 100-3.025 1.512 1.512 0 000 3.025zm18.883-1.514c0 .833-.68 1.514-1.512 1.514s-1.513-.681-1.513-1.513c0-.832.681-1.513 1.513-1.513a1.5 1.5 0 011.512 1.513zm15.871 1.514a1.513 1.513 0 100-3.026 1.513 1.513 0 000 3.026zm17.371 0a1.513 1.513 0 100-3.026 1.513 1.513 0 000 3.026zm18.884-1.514c0 .833-.681 1.514-1.513 1.514a1.518 1.518 0 01-1.513-1.513c0-.832.681-1.513 1.513-1.513a1.51 1.51 0 011.513 1.513zm15.858 1.514a1.513 1.513 0 100-3.026 1.513 1.513 0 000 3.026zm17.371 0a1.513 1.513 0 100-3.026 1.513 1.513 0 000 3.026zm17.371 0a1.513 1.513 0 100-3.027 1.513 1.513 0 000 3.027zM1.513 54.017a1.513 1.513 0 100-3.026 1.513 1.513 0 000 3.026zm17.371 0a1.513 1.513 0 100-3.026 1.513 1.513 0 000 3.026zm17.383 0a1.513 1.513 0 100-3.026 1.513 1.513 0 000 3.026zm17.371 0a1.513 1.513 0 100-3.026 1.513 1.513 0 000 3.026zm17.372 0a1.513 1.513 0 10-.001-3.026 1.513 1.513 0 000 3.026zm17.37 0a1.513 1.513 0 100-3.026 1.513 1.513 0 000 3.026zm18.884-1.513c0 .832-.681 1.513-1.513 1.513a1.518 1.518 0 01-1.513-1.513c0-.832.681-1.513 1.513-1.513.832 0 1.513.68 1.513 1.513zm17.371 0c0 .832-.681 1.513-1.513 1.513a1.518 1.518 0 01-1.513-1.513c0-.832.681-1.513 1.513-1.513.845 0 1.513.68 1.513 1.513zm15.871 1.513a1.512 1.512 0 100-3.025 1.512 1.512 0 000 3.025zm17.371 0a1.512 1.512 0 100-3.025 1.512 1.512 0 000 3.025zm17.371 0a1.512 1.512 0 100-3.025 1.512 1.512 0 000 3.025zm17.371 0a1.512 1.512 0 100-3.025 1.512 1.512 0 000 3.025zm17.371 0a1.512 1.512 0 100-3.025 1.512 1.512 0 000 3.025zm17.371 0a1.512 1.512 0 100-3.025 1.512 1.512 0 000 3.025zm18.883-1.513c0 .832-.68 1.513-1.512 1.513s-1.513-.681-1.513-1.513c0-.832.681-1.513 1.513-1.513.844 0 1.512.68 1.512 1.513zm15.871 1.513a1.513 1.513 0 100-3.026 1.513 1.513 0 000 3.026zm17.371 0a1.513 1.513 0 100-3.026 1.513 1.513 0 000 3.026zm18.884-1.513c0 .832-.681 1.513-1.513 1.513a1.518 1.518 0 01-1.513-1.513c0-.832.681-1.513 1.513-1.513.832 0 1.513.68 1.513 1.513zm15.858 1.513a1.513 1.513 0 100-3.026 1.513 1.513 0 000 3.026zm17.371 0a1.513 1.513 0 100-3.026 1.513 1.513 0 000 3.026zm17.371 0a1.513 1.513 0 100-3.027 1.513 1.513 0 000 3.026zM1.513 71.01a1.513 1.513 0 100-3.026 1.513 1.513 0 000 3.025zm17.371 0a1.513 1.513 0 100-3.026 1.513 1.513 0 000 3.025zm17.383 0a1.513 1.513 0 100-3.026 1.513 1.513 0 000 3.025zm17.371 0a1.513 1.513 0 100-3.026 1.513 1.513 0 000 3.025zm17.372 0a1.513 1.513 0 10-.001-3.026 1.513 1.513 0 000 3.025zm17.37 0a1.513 1.513 0 100-3.026 1.513 1.513 0 000 3.025zm18.884-1.513c0 .832-.681 1.512-1.513 1.512-.832 0-1.513-.68-1.513-1.512s.681-1.513 1.513-1.513c.832 0 1.513.68 1.513 1.513zm17.371 0c0 .832-.681 1.512-1.513 1.512-.832 0-1.513-.68-1.513-1.512s.681-1.513 1.513-1.513c.845 0 1.513.68 1.513 1.513zm15.871 1.513a1.512 1.512 0 100-3.026 1.512 1.512 0 000 3.025zm17.371 0a1.512 1.512 0 100-3.026 1.512 1.512 0 000 3.025zm17.371 0a1.512 1.512 0 100-3.026 1.512 1.512 0 000 3.025zm17.371 0a1.512 1.512 0 100-3.026 1.512 1.512 0 000 3.025zm17.371 0a1.512 1.512 0 100-3.026 1.512 1.512 0 000 3.025zm17.371 0a1.512 1.512 0 100-3.026 1.512 1.512 0 000 3.025zm18.883-1.513c0 .832-.68 1.512-1.512 1.512s-1.513-.68-1.513-1.512.681-1.513 1.513-1.513c.844 0 1.512.68 1.512 1.513zm15.871 1.513a1.513 1.513 0 100-3.026 1.513 1.513 0 000 3.025zm17.371 0a1.513 1.513 0 100-3.026 1.513 1.513 0 000 3.025zm18.884-1.513c0 .832-.681 1.512-1.513 1.512-.832 0-1.513-.68-1.513-1.512s.681-1.513 1.513-1.513c.832 0 1.513.68 1.513 1.513zm15.858 1.513a1.513 1.513 0 100-3.026 1.513 1.513 0 000 3.025zm17.371 0a1.513 1.513 0 100-3.026 1.513 1.513 0 000 3.025zm17.371 0a1.513 1.513 0 100-3.027 1.513 1.513 0 000 3.026zM1.513 88.002a1.513 1.513 0 100-3.025 1.513 1.513 0 000 3.025zm17.371 0a1.513 1.513 0 100-3.025 1.513 1.513 0 000 3.025zm17.383 0a1.513 1.513 0 100-3.025 1.513 1.513 0 000 3.025zm17.371 0a1.513 1.513 0 100-3.025 1.513 1.513 0 000 3.025zm17.372 0a1.513 1.513 0 10-.001-3.025 1.513 1.513 0 000 3.025zm17.37 0a1.513 1.513 0 100-3.025 1.513 1.513 0 000 3.025zm18.884-1.512c0 .831-.681 1.512-1.513 1.512-.832 0-1.513-.68-1.513-1.513 0-.832.681-1.512 1.513-1.512.832 0 1.513.68 1.513 1.512zm17.371 0c0 .831-.681 1.512-1.513 1.512-.832 0-1.513-.68-1.513-1.513 0-.832.681-1.512 1.513-1.512.845 0 1.513.68 1.513 1.512zm15.871 1.512a1.512 1.512 0 100-3.025 1.512 1.512 0 000 3.025zm17.371 0a1.512 1.512 0 100-3.025 1.512 1.512 0 000 3.025zm17.371 0a1.512 1.512 0 100-3.025 1.512 1.512 0 000 3.025zm17.371 0a1.512 1.512 0 100-3.025 1.512 1.512 0 000 3.025zm17.371 0a1.512 1.512 0 100-3.025 1.512 1.512 0 000 3.025zm17.371 0a1.512 1.512 0 100-3.025 1.512 1.512 0 000 3.025zm18.883-1.512c0 .831-.68 1.512-1.512 1.512s-1.513-.68-1.513-1.513c0-.832.681-1.512 1.513-1.512.844 0 1.512.68 1.512 1.512zm15.871 1.512a1.513 1.513 0 100-3.025 1.513 1.513 0 000 3.025zm17.371 0a1.513 1.513 0 100-3.025 1.513 1.513 0 000 3.025zm18.884-1.512c0 .831-.681 1.512-1.513 1.512-.832 0-1.513-.68-1.513-1.513 0-.832.681-1.512 1.513-1.512.832 0 1.513.68 1.513 1.512zm15.858 1.512a1.513 1.513 0 100-3.025 1.513 1.513 0 000 3.025zm17.371 0a1.513 1.513 0 100-3.025 1.513 1.513 0 000 3.025zm17.371 0a1.513 1.513 0 100-3.026 1.513 1.513 0 000 3.026zM1.513 104.995a1.513 1.513 0 100-3.025 1.513 1.513 0 000 3.025zm17.371 0a1.513 1.513 0 100-3.025 1.513 1.513 0 000 3.025zm17.383 0a1.513 1.513 0 100-3.025 1.513 1.513 0 000 3.025zm17.371 0a1.513 1.513 0 100-3.025 1.513 1.513 0 000 3.025zm17.372 0a1.513 1.513 0 100-3.025 1.513 1.513 0 000 3.025zm17.37 0a1.513 1.513 0 100-3.025 1.513 1.513 0 000 3.025zm18.884-1.513c0 .832-.681 1.513-1.513 1.513a1.518 1.518 0 01-1.513-1.513c0-.832.681-1.513 1.513-1.513.832.013 1.513.681 1.513 1.513zm17.371 0c0 .832-.681 1.513-1.513 1.513a1.518 1.518 0 01-1.513-1.513c0-.832.681-1.513 1.513-1.513a1.518 1.518 0 011.513 1.513zm15.871 1.513a1.512 1.512 0 100-3.025 1.512 1.512 0 000 3.025zm17.371 0a1.512 1.512 0 100-3.025 1.512 1.512 0 000 3.025zm17.371 0a1.512 1.512 0 100-3.025 1.512 1.512 0 000 3.025zm17.371 0a1.512 1.512 0 100-3.025 1.512 1.512 0 000 3.025zm17.371 0a1.512 1.512 0 100-3.025 1.512 1.512 0 000 3.025zm17.371 0a1.512 1.512 0 100-3.025 1.512 1.512 0 000 3.025zm18.883-1.513c0 .832-.68 1.513-1.512 1.513a1.518 1.518 0 01-1.513-1.513c0-.832.681-1.513 1.513-1.513a1.517 1.517 0 011.512 1.513zm15.871 1.513a1.512 1.512 0 10.001-3.025 1.512 1.512 0 00-.001 3.025zm17.371 0a1.512 1.512 0 10.001-3.025 1.512 1.512 0 00-.001 3.025zm18.884-1.513c0 .832-.681 1.513-1.513 1.513a1.518 1.518 0 01-1.513-1.513c0-.832.681-1.513 1.513-1.513.832.013 1.513.681 1.513 1.513zm15.858 1.513a1.512 1.512 0 10.001-3.025 1.512 1.512 0 00-.001 3.025zm17.371 0a1.512 1.512 0 10.001-3.025 1.512 1.512 0 00-.001 3.025zm17.371 0a1.513 1.513 0 100-3.026 1.513 1.513 0 000 3.026zM1.513 122a1.512 1.512 0 100-3.025 1.512 1.512 0 000 3.025zm17.371 0a1.512 1.512 0 100-3.025 1.512 1.512 0 000 3.025zm17.383 0a1.512 1.512 0 100-3.025 1.512 1.512 0 000 3.025zm17.371 0a1.512 1.512 0 100-3.025 1.512 1.512 0 000 3.025zm17.372 0a1.512 1.512 0 100-3.025 1.512 1.512 0 000 3.025zm17.37 0a1.512 1.512 0 100-3.025 1.512 1.512 0 000 3.025zm18.884-1.512c0 .832-.681 1.512-1.513 1.512-.832 0-1.513-.68-1.513-1.512s.681-1.513 1.513-1.513a1.51 1.51 0 011.513 1.513zm17.371 0c0 .832-.681 1.512-1.513 1.512-.832 0-1.513-.68-1.513-1.512s.681-1.513 1.513-1.513c.845 0 1.513.668 1.513 1.513zM140.506 122a1.512 1.512 0 100-3.024 1.512 1.512 0 000 3.024zm17.371 0a1.512 1.512 0 100-3.024 1.512 1.512 0 000 3.024zm17.371 0a1.512 1.512 0 100-3.024 1.512 1.512 0 000 3.024zm17.371 0a1.512 1.512 0 100-3.024 1.512 1.512 0 000 3.024zm17.371 0a1.512 1.512 0 100-3.024 1.512 1.512 0 000 3.024zm17.371 0a1.512 1.512 0 100-3.024 1.512 1.512 0 000 3.024zm18.883-1.512c0 .832-.68 1.512-1.512 1.512s-1.513-.68-1.513-1.512.681-1.513 1.513-1.513a1.5 1.5 0 011.512 1.513zM262.115 122a1.512 1.512 0 10.001-3.025 1.512 1.512 0 00-.001 3.025zm17.371 0a1.512 1.512 0 10.001-3.025 1.512 1.512 0 00-.001 3.025zm18.884-1.512c0 .832-.681 1.512-1.513 1.512-.832 0-1.513-.68-1.513-1.512s.681-1.513 1.513-1.513a1.51 1.51 0 011.513 1.513zM314.228 122a1.512 1.512 0 10.001-3.025 1.512 1.512 0 00-.001 3.025zm17.371 0a1.512 1.512 0 10.001-3.025 1.512 1.512 0 000 3.025zm17.371 0a1.513 1.513 0 100-3.026 1.513 1.513 0 000 3.026zM1.513 138.993a1.513 1.513 0 100-3.025 1.513 1.513 0 000 3.025zm17.371 0a1.513 1.513 0 100-3.025 1.513 1.513 0 000 3.025zm17.383 0a1.513 1.513 0 100-3.025 1.513 1.513 0 000 3.025zm17.371 0a1.513 1.513 0 100-3.025 1.513 1.513 0 000 3.025zm17.372 0a1.513 1.513 0 100-3.025 1.513 1.513 0 000 3.025zm17.37 0a1.513 1.513 0 100-3.025 1.513 1.513 0 000 3.025zm18.884-1.513c0 .832-.681 1.513-1.513 1.513a1.518 1.518 0 01-1.513-1.513c0-.832.681-1.512 1.513-1.512.832 0 1.513.68 1.513 1.512zm17.371 0c0 .832-.681 1.513-1.513 1.513a1.518 1.518 0 01-1.513-1.513c0-.832.681-1.512 1.513-1.512.845 0 1.513.68 1.513 1.512zm15.871 1.513a1.512 1.512 0 100-3.025 1.512 1.512 0 000 3.025zm17.371 0a1.512 1.512 0 100-3.025 1.512 1.512 0 000 3.025zm17.371 0a1.512 1.512 0 100-3.025 1.512 1.512 0 000 3.025zm17.371 0a1.512 1.512 0 100-3.025 1.512 1.512 0 000 3.025zm17.371 0a1.512 1.512 0 100-3.025 1.512 1.512 0 000 3.025zm17.371 0a1.512 1.512 0 100-3.025 1.512 1.512 0 000 3.025zm18.883-1.513c0 .832-.68 1.513-1.512 1.513a1.518 1.518 0 01-1.513-1.513c0-.832.681-1.512 1.513-1.512.844 0 1.512.68 1.512 1.512zm15.871 1.513a1.512 1.512 0 10.001-3.025 1.512 1.512 0 00-.001 3.025zm17.371 0a1.512 1.512 0 10.001-3.025 1.512 1.512 0 00-.001 3.025zm18.884-1.513c0 .832-.681 1.513-1.513 1.513a1.518 1.518 0 01-1.513-1.513c0-.832.681-1.512 1.513-1.512.832 0 1.513.68 1.513 1.512zm15.858 1.513a1.512 1.512 0 10.001-3.025 1.512 1.512 0 00-.001 3.025zm17.371 0a1.512 1.512 0 10.001-3.025 1.512 1.512 0 00-.001 3.025zm17.371 0a1.513 1.513 0 100-3.026 1.513 1.513 0 000 3.026zM1.513 155.986a1.513 1.513 0 100-3.025 1.513 1.513 0 000 3.025zm17.371 0a1.513 1.513 0 100-3.025 1.513 1.513 0 000 3.025zm17.383 0a1.513 1.513 0 100-3.025 1.513 1.513 0 000 3.025zm17.371 0a1.513 1.513 0 100-3.025 1.513 1.513 0 000 3.025zm17.372 0a1.513 1.513 0 100-3.025 1.513 1.513 0 000 3.025zm17.37 0a1.513 1.513 0 100-3.025 1.513 1.513 0 000 3.025zm18.884-1.513c0 .832-.681 1.513-1.513 1.513a1.518 1.518 0 01-1.513-1.513c0-.832.681-1.513 1.513-1.513.832 0 1.513.681 1.513 1.513zm17.371 0c0 .832-.681 1.513-1.513 1.513a1.518 1.518 0 01-1.513-1.513c0-.832.681-1.513 1.513-1.513a1.51 1.51 0 011.513 1.513zm15.871 1.513a1.512 1.512 0 100-3.025 1.512 1.512 0 000 3.025zm17.371 0a1.512 1.512 0 100-3.025 1.512 1.512 0 000 3.025zm17.371 0a1.512 1.512 0 100-3.025 1.512 1.512 0 000 3.025zm17.371 0a1.512 1.512 0 100-3.025 1.512 1.512 0 000 3.025zm17.371 0a1.512 1.512 0 100-3.025 1.512 1.512 0 000 3.025zm17.371 0a1.512 1.512 0 100-3.025 1.512 1.512 0 000 3.025zm18.883-1.513c0 .832-.68 1.513-1.512 1.513a1.518 1.518 0 01-1.513-1.513c0-.832.681-1.513 1.513-1.513a1.51 1.51 0 011.512 1.513zm15.871 1.513a1.512 1.512 0 10.001-3.025 1.512 1.512 0 00-.001 3.025zm17.371 0a1.512 1.512 0 10.001-3.025 1.512 1.512 0 00-.001 3.025zm18.884-1.513c0 .832-.681 1.513-1.513 1.513a1.518 1.518 0 01-1.513-1.513c0-.832.681-1.513 1.513-1.513.832 0 1.513.681 1.513 1.513zm15.858 1.513a1.512 1.512 0 10.001-3.025 1.512 1.512 0 00-.001 3.025zm17.371 0a1.512 1.512 0 10.001-3.025 1.512 1.512 0 00-.001 3.025zm17.371 0a1.513 1.513 0 100-3.026 1.513 1.513 0 000 3.026zM1.513 172.979a1.513 1.513 0 10-.001-3.027 1.513 1.513 0 000 3.027zm17.371 0a1.513 1.513 0 10-.001-3.027 1.513 1.513 0 000 3.027zm17.383 0a1.513 1.513 0 100-3.027 1.513 1.513 0 000 3.027zm17.371 0a1.513 1.513 0 100-3.026 1.513 1.513 0 000 3.026zm17.372 0a1.513 1.513 0 10-.002-3.027 1.513 1.513 0 00.001 3.027zm17.37 0a1.513 1.513 0 100-3.027 1.513 1.513 0 000 3.027zm18.884-1.513c0 .832-.681 1.513-1.513 1.513a1.518 1.518 0 01-1.513-1.513c0-.832.681-1.513 1.513-1.513.832 0 1.513.681 1.513 1.513zm17.371 0c0 .832-.681 1.513-1.513 1.513a1.518 1.518 0 01-1.513-1.513c0-.832.681-1.513 1.513-1.513a1.51 1.51 0 011.513 1.513zm15.871 1.513a1.513 1.513 0 10-.002-3.026 1.513 1.513 0 00.002 3.026zm17.371 0a1.513 1.513 0 10-.002-3.026 1.513 1.513 0 00.002 3.026zm17.371 0a1.513 1.513 0 10-.002-3.026 1.513 1.513 0 00.002 3.026zm17.371 0a1.513 1.513 0 10-.002-3.026 1.513 1.513 0 00.002 3.026zm17.371 0a1.513 1.513 0 10-.002-3.026 1.513 1.513 0 00.002 3.026zm17.371 0a1.513 1.513 0 10-.002-3.026 1.513 1.513 0 00.002 3.026zm18.883-1.513c0 .832-.68 1.513-1.512 1.513a1.518 1.518 0 01-1.513-1.513c0-.832.681-1.513 1.513-1.513a1.51 1.51 0 011.512 1.513zm15.871 1.513a1.513 1.513 0 100-3.026 1.513 1.513 0 000 3.026zm17.371 0a1.513 1.513 0 100-3.026 1.513 1.513 0 000 3.026zm18.884-1.513c0 .832-.681 1.513-1.513 1.513a1.518 1.518 0 01-1.513-1.513c0-.832.681-1.513 1.513-1.513.832 0 1.513.681 1.513 1.513zm15.858 1.513a1.513 1.513 0 100-3.026 1.513 1.513 0 000 3.026zm17.371 0a1.513 1.513 0 100-3.026 1.513 1.513 0 000 3.026zm17.371 0a1.514 1.514 0 10-.002-3.028 1.514 1.514 0 00.002 3.028zM1.513 189.972a1.513 1.513 0 10-.001-3.027 1.513 1.513 0 000 3.027zm17.371 0a1.513 1.513 0 10-.001-3.027 1.513 1.513 0 000 3.027zm17.383 0a1.513 1.513 0 100-3.027 1.513 1.513 0 000 3.027zm17.371 0a1.513 1.513 0 100-3.026 1.513 1.513 0 000 3.026zm17.372 0a1.513 1.513 0 10-.002-3.027 1.513 1.513 0 00.001 3.027zm17.37 0a1.513 1.513 0 100-3.027 1.513 1.513 0 000 3.027zm18.884-1.513c0 .832-.681 1.513-1.513 1.513a1.518 1.518 0 01-1.513-1.513c0-.832.681-1.513 1.513-1.513.832.013 1.513.681 1.513 1.513zm17.371 0c0 .832-.681 1.513-1.513 1.513a1.518 1.518 0 01-1.513-1.513c0-.832.681-1.513 1.513-1.513a1.518 1.518 0 011.513 1.513zm15.871 1.513a1.513 1.513 0 10-.002-3.026 1.513 1.513 0 00.002 3.026zm17.371 0a1.513 1.513 0 10-.002-3.026 1.513 1.513 0 00.002 3.026zm17.371 0a1.513 1.513 0 10-.002-3.026 1.513 1.513 0 00.002 3.026zm17.371 0a1.513 1.513 0 10-.002-3.026 1.513 1.513 0 00.002 3.026zm17.371 0a1.513 1.513 0 10-.002-3.026 1.513 1.513 0 00.002 3.026zm17.371 0a1.513 1.513 0 10-.002-3.026 1.513 1.513 0 00.002 3.026zm18.883-1.513c0 .832-.68 1.513-1.512 1.513a1.518 1.518 0 01-1.513-1.513c0-.832.681-1.513 1.513-1.513a1.517 1.517 0 011.512 1.513zm15.871 1.513a1.513 1.513 0 100-3.026 1.513 1.513 0 000 3.026zm17.371 0a1.513 1.513 0 100-3.026 1.513 1.513 0 000 3.026zm18.884-1.513c0 .832-.681 1.513-1.513 1.513a1.518 1.518 0 01-1.513-1.513c0-.832.681-1.513 1.513-1.513.832.013 1.513.681 1.513 1.513zm15.858 1.513a1.513 1.513 0 100-3.026 1.513 1.513 0 000 3.026zm17.371 0a1.513 1.513 0 100-3.026 1.513 1.513 0 000 3.026zm17.371 0a1.514 1.514 0 10-.002-3.028 1.514 1.514 0 00.002 3.028zM1.513 206.977a1.513 1.513 0 100-3.025 1.513 1.513 0 000 3.025zm17.371 0a1.513 1.513 0 100-3.025 1.513 1.513 0 000 3.025zm17.383 0a1.513 1.513 0 100-3.025 1.513 1.513 0 000 3.025zm17.371 0a1.513 1.513 0 100-3.025 1.513 1.513 0 000 3.025zm17.372 0a1.513 1.513 0 100-3.025 1.513 1.513 0 000 3.025zm17.37 0a1.513 1.513 0 100-3.025 1.513 1.513 0 000 3.025zm18.884-1.513c0 .832-.681 1.513-1.513 1.513a1.518 1.518 0 01-1.513-1.513c0-.832.681-1.512 1.513-1.512a1.51 1.51 0 011.513 1.512zm17.371 0c0 .832-.681 1.513-1.513 1.513a1.518 1.518 0 01-1.513-1.513c0-.832.681-1.512 1.513-1.512a1.5 1.5 0 011.513 1.512zm15.871 1.513a1.512 1.512 0 100-3.025 1.512 1.512 0 000 3.025zm17.371 0a1.512 1.512 0 100-3.025 1.512 1.512 0 000 3.025zm17.371 0a1.512 1.512 0 100-3.025 1.512 1.512 0 000 3.025zm17.371 0a1.512 1.512 0 100-3.025 1.512 1.512 0 000 3.025zm17.371 0a1.512 1.512 0 100-3.025 1.512 1.512 0 000 3.025zm17.371 0a1.512 1.512 0 100-3.025 1.512 1.512 0 000 3.025zm18.883-1.513c0 .832-.68 1.513-1.512 1.513a1.518 1.518 0 01-1.513-1.513c0-.832.681-1.512 1.513-1.512a1.5 1.5 0 011.512 1.512zm15.871 1.513a1.512 1.512 0 10.001-3.025 1.512 1.512 0 00-.001 3.025zm17.371 0a1.512 1.512 0 10.001-3.025 1.512 1.512 0 00-.001 3.025zm18.884-1.513c0 .832-.681 1.513-1.513 1.513a1.518 1.518 0 01-1.513-1.513c0-.832.681-1.512 1.513-1.512a1.51 1.51 0 011.513 1.512zm15.858 1.513a1.512 1.512 0 10.001-3.025 1.512 1.512 0 00-.001 3.025zm17.371 0a1.512 1.512 0 10.001-3.025 1.512 1.512 0 00-.001 3.025zm17.371 0a1.513 1.513 0 100-3.026 1.513 1.513 0 000 3.026zM1.513 223.97a1.513 1.513 0 10-.001-3.027 1.513 1.513 0 000 3.027zm17.371 0a1.513 1.513 0 10-.001-3.027 1.513 1.513 0 000 3.027zm17.383 0a1.513 1.513 0 100-3.027 1.513 1.513 0 000 3.027zm17.371 0a1.513 1.513 0 100-3.026 1.513 1.513 0 000 3.026zm17.372 0a1.513 1.513 0 10-.002-3.027 1.513 1.513 0 00.001 3.027zm17.37 0a1.513 1.513 0 100-3.027 1.513 1.513 0 000 3.027zm18.884-1.513c0 .832-.681 1.513-1.513 1.513a1.518 1.518 0 01-1.513-1.513c0-.832.681-1.513 1.513-1.513.832 0 1.513.681 1.513 1.513zm17.371 0c0 .832-.681 1.513-1.513 1.513a1.518 1.518 0 01-1.513-1.513c0-.832.681-1.513 1.513-1.513a1.51 1.51 0 011.513 1.513zm15.871 1.513a1.513 1.513 0 10-.002-3.026 1.513 1.513 0 00.002 3.026zm17.371 0a1.513 1.513 0 10-.002-3.026 1.513 1.513 0 00.002 3.026zm17.371 0a1.513 1.513 0 10-.002-3.026 1.513 1.513 0 00.002 3.026zm17.371 0a1.513 1.513 0 10-.002-3.026 1.513 1.513 0 00.002 3.026zm17.371 0a1.513 1.513 0 10-.002-3.026 1.513 1.513 0 00.002 3.026zm17.371 0a1.513 1.513 0 10-.002-3.026 1.513 1.513 0 00.002 3.026zm18.883-1.513c0 .832-.68 1.513-1.512 1.513a1.518 1.518 0 01-1.513-1.513c0-.832.681-1.513 1.513-1.513a1.51 1.51 0 011.512 1.513zm15.871 1.513a1.513 1.513 0 100-3.026 1.513 1.513 0 000 3.026zm17.371 0a1.513 1.513 0 100-3.026 1.513 1.513 0 000 3.026zm18.884-1.513c0 .832-.681 1.513-1.513 1.513a1.518 1.518 0 01-1.513-1.513c0-.832.681-1.513 1.513-1.513.832 0 1.513.681 1.513 1.513zm15.858 1.513a1.513 1.513 0 100-3.026 1.513 1.513 0 000 3.026zm17.371 0a1.513 1.513 0 100-3.026 1.513 1.513 0 000 3.026zm17.371 0a1.514 1.514 0 10-.002-3.028 1.514 1.514 0 00.002 3.028zM1.513 240.963a1.513 1.513 0 10-.001-3.027 1.513 1.513 0 000 3.027zm17.371 0a1.513 1.513 0 10-.001-3.027 1.513 1.513 0 000 3.027zm17.383 0a1.513 1.513 0 100-3.027 1.513 1.513 0 000 3.027zm17.371 0a1.513 1.513 0 100-3.026 1.513 1.513 0 000 3.026zm17.372 0a1.513 1.513 0 10-.002-3.027 1.513 1.513 0 00.001 3.027zm17.37 0a1.513 1.513 0 100-3.027 1.513 1.513 0 000 3.027zm18.884-1.513c0 .832-.681 1.513-1.513 1.513a1.518 1.518 0 01-1.513-1.513c0-.832.681-1.513 1.513-1.513.832 0 1.513.681 1.513 1.513zm17.371 0c0 .832-.681 1.513-1.513 1.513a1.518 1.518 0 01-1.513-1.513c0-.832.681-1.513 1.513-1.513a1.51 1.51 0 011.513 1.513zm15.871 1.513a1.513 1.513 0 10-.002-3.026 1.513 1.513 0 00.002 3.026zm17.371 0a1.513 1.513 0 10-.002-3.026 1.513 1.513 0 00.002 3.026zm17.371 0a1.513 1.513 0 10-.002-3.026 1.513 1.513 0 00.002 3.026zm17.371 0a1.513 1.513 0 10-.002-3.026 1.513 1.513 0 00.002 3.026zm17.371 0a1.513 1.513 0 10-.002-3.026 1.513 1.513 0 00.002 3.026zm17.371 0a1.513 1.513 0 10-.002-3.026 1.513 1.513 0 00.002 3.026zm18.883-1.513c0 .832-.68 1.513-1.512 1.513a1.518 1.518 0 01-1.513-1.513c0-.832.681-1.513 1.513-1.513a1.51 1.51 0 011.512 1.513zm15.871 1.513a1.513 1.513 0 100-3.026 1.513 1.513 0 000 3.026zm17.371 0a1.513 1.513 0 100-3.026 1.513 1.513 0 000 3.026zm18.884-1.513c0 .832-.681 1.513-1.513 1.513a1.518 1.518 0 01-1.513-1.513c0-.832.681-1.513 1.513-1.513.832 0 1.513.681 1.513 1.513zm15.858 1.513a1.513 1.513 0 100-3.026 1.513 1.513 0 000 3.026zm17.371 0a1.513 1.513 0 100-3.026 1.513 1.513 0 000 3.026zm17.371 0a1.514 1.514 0 10-.002-3.028 1.514 1.514 0 00.002 3.028zM1.513 257.955a1.512 1.512 0 100-3.025 1.512 1.512 0 000 3.025zm17.371 0a1.512 1.512 0 100-3.025 1.512 1.512 0 000 3.025zm17.383 0a1.512 1.512 0 100-3.025 1.512 1.512 0 000 3.025zm17.371 0a1.512 1.512 0 100-3.025 1.512 1.512 0 000 3.025zm17.372 0a1.512 1.512 0 100-3.025 1.512 1.512 0 000 3.025zm17.37 0a1.512 1.512 0 100-3.025 1.512 1.512 0 000 3.025zm18.884-1.512c0 .832-.681 1.512-1.513 1.512-.832 0-1.513-.68-1.513-1.512s.681-1.513 1.513-1.513c.832 0 1.513.681 1.513 1.513zm17.371 0c0 .832-.681 1.512-1.513 1.512-.832 0-1.513-.68-1.513-1.512s.681-1.513 1.513-1.513a1.51 1.51 0 011.513 1.513zm15.871 1.512a1.512 1.512 0 100-3.024 1.512 1.512 0 000 3.024zm17.371 0a1.512 1.512 0 100-3.024 1.512 1.512 0 000 3.024zm17.371 0a1.512 1.512 0 100-3.024 1.512 1.512 0 000 3.024zm17.371 0a1.512 1.512 0 100-3.024 1.512 1.512 0 000 3.024zm17.371 0a1.512 1.512 0 100-3.024 1.512 1.512 0 000 3.024zm17.371 0a1.512 1.512 0 100-3.024 1.512 1.512 0 000 3.024zm18.883-1.512c0 .832-.68 1.512-1.512 1.512s-1.513-.68-1.513-1.512.681-1.513 1.513-1.513a1.51 1.51 0 011.512 1.513zm15.871 1.512a1.512 1.512 0 10.001-3.025 1.512 1.512 0 00-.001 3.025zm17.371 0a1.512 1.512 0 10.001-3.025 1.512 1.512 0 00-.001 3.025zm18.884-1.512c0 .832-.681 1.512-1.513 1.512-.832 0-1.513-.68-1.513-1.512s.681-1.513 1.513-1.513c.832 0 1.513.681 1.513 1.513zm15.858 1.512a1.512 1.512 0 10.001-3.025 1.512 1.512 0 00-.001 3.025zm17.371 0a1.512 1.512 0 10.001-3.025 1.512 1.512 0 00-.001 3.025zm17.371 0a1.513 1.513 0 100-3.026 1.513 1.513 0 000 3.026zM1.513 274.948a1.513 1.513 0 100-3.025 1.513 1.513 0 000 3.025zm17.371 0a1.513 1.513 0 100-3.025 1.513 1.513 0 000 3.025zm17.383 0a1.513 1.513 0 100-3.025 1.513 1.513 0 000 3.025zm17.371 0a1.513 1.513 0 100-3.025 1.513 1.513 0 000 3.025zm17.372 0a1.513 1.513 0 100-3.025 1.513 1.513 0 000 3.025zm17.37 0a1.513 1.513 0 100-3.025 1.513 1.513 0 000 3.025zm18.884-1.513c0 .832-.681 1.513-1.513 1.513a1.518 1.518 0 01-1.513-1.513c0-.832.681-1.512 1.513-1.512.832.012 1.513.68 1.513 1.512zm17.371 0c0 .832-.681 1.513-1.513 1.513a1.518 1.518 0 01-1.513-1.513c0-.832.681-1.512 1.513-1.512.845.012 1.513.68 1.513 1.512zm15.871 1.513a1.512 1.512 0 100-3.025 1.512 1.512 0 000 3.025zm17.371 0a1.512 1.512 0 100-3.025 1.512 1.512 0 000 3.025zm17.371 0a1.512 1.512 0 100-3.025 1.512 1.512 0 000 3.025zm17.371 0a1.512 1.512 0 100-3.025 1.512 1.512 0 000 3.025zm17.371 0a1.512 1.512 0 100-3.025 1.512 1.512 0 000 3.025zm17.371 0a1.512 1.512 0 100-3.025 1.512 1.512 0 000 3.025zm18.883-1.513c0 .832-.68 1.513-1.512 1.513a1.518 1.518 0 01-1.513-1.513c0-.832.681-1.512 1.513-1.512.844.012 1.512.68 1.512 1.512zm15.871 1.513a1.512 1.512 0 10.001-3.025 1.512 1.512 0 00-.001 3.025zm17.371 0a1.512 1.512 0 10.001-3.025 1.512 1.512 0 00-.001 3.025zm18.884-1.513c0 .832-.681 1.513-1.513 1.513a1.518 1.518 0 01-1.513-1.513c0-.832.681-1.512 1.513-1.512.832.012 1.513.68 1.513 1.512zm15.858 1.513a1.512 1.512 0 10.001-3.025 1.512 1.512 0 00-.001 3.025zm17.371 0a1.512 1.512 0 10.001-3.025 1.512 1.512 0 00-.001 3.025zm17.371 0a1.513 1.513 0 100-3.026 1.513 1.513 0 000 3.026zM3.025 290.441c0 .832-.68 1.512-1.512 1.512S0 291.273 0 290.441s.68-1.513 1.513-1.513a1.51 1.51 0 011.512 1.513zm17.371 0c0 .832-.68 1.512-1.512 1.512s-1.513-.68-1.513-1.512.68-1.513 1.513-1.513a1.5 1.5 0 011.512 1.513zm17.371 0c0 .832-.68 1.512-1.512 1.512s-1.513-.68-1.513-1.512.68-1.513 1.513-1.513a1.5 1.5 0 011.512 1.513zm17.383 0c0 .832-.68 1.512-1.512 1.512s-1.512-.68-1.512-1.512.68-1.513 1.512-1.513 1.513.668 1.513 1.513zm17.372 0c0 .832-.68 1.512-1.513 1.512-.832 0-1.513-.68-1.513-1.512s.681-1.513 1.513-1.513a1.51 1.51 0 011.513 1.513zm17.371 0c0 .832-.68 1.512-1.513 1.512-.832 0-1.513-.68-1.513-1.512s.681-1.513 1.513-1.513a1.51 1.51 0 011.513 1.513zm17.371 0c0 .832-.681 1.512-1.513 1.512-.832 0-1.513-.68-1.513-1.512s.681-1.513 1.513-1.513a1.51 1.51 0 011.513 1.513zm17.371 0c0 .832-.681 1.512-1.513 1.512-.832 0-1.513-.68-1.513-1.512s.681-1.513 1.513-1.513c.845 0 1.513.668 1.513 1.513zm17.371 0c0 .832-.681 1.512-1.513 1.512-.832 0-1.513-.68-1.513-1.512s.681-1.513 1.513-1.513c.845 0 1.513.668 1.513 1.513zm17.383 0c0 .832-.68 1.512-1.512 1.512s-1.513-.68-1.513-1.512.681-1.513 1.513-1.513c.832 0 1.512.668 1.512 1.513zm17.371 0c0 .832-.68 1.512-1.512 1.512s-1.513-.68-1.513-1.512.681-1.513 1.513-1.513c.832 0 1.512.668 1.512 1.513zm17.371 0c0 .832-.68 1.512-1.512 1.512s-1.513-.68-1.513-1.512.681-1.513 1.513-1.513c.832 0 1.512.668 1.512 1.513zm17.371 0c0 .832-.68 1.512-1.512 1.512s-1.513-.68-1.513-1.512.681-1.513 1.513-1.513c.832 0 1.512.668 1.512 1.513zm17.371 0c0 .832-.681 1.512-1.512 1.512-.832 0-1.513-.68-1.513-1.512s.681-1.513 1.513-1.513a1.5 1.5 0 011.512 1.513zm17.371 0c0 .832-.68 1.512-1.512 1.512s-1.513-.68-1.513-1.512.681-1.513 1.513-1.513a1.5 1.5 0 011.512 1.513zm17.371 0c0 .832-.68 1.512-1.512 1.512s-1.513-.68-1.513-1.512.681-1.513 1.513-1.513a1.5 1.5 0 011.512 1.513zm17.384 0c0 .832-.681 1.512-1.513 1.512-.832 0-1.512-.68-1.512-1.512s.68-1.513 1.512-1.513a1.51 1.51 0 011.513 1.513zm17.371 0c0 .832-.681 1.512-1.513 1.512-.832 0-1.513-.68-1.513-1.512s.681-1.513 1.513-1.513a1.51 1.51 0 011.513 1.513zm17.371 0c0 .832-.681 1.512-1.513 1.512-.832 0-1.513-.68-1.513-1.512s.681-1.513 1.513-1.513a1.51 1.51 0 011.513 1.513zm17.371 0c0 .832-.681 1.512-1.513 1.512-.832 0-1.513-.68-1.513-1.512s.681-1.513 1.513-1.513a1.51 1.51 0 011.513 1.513zm17.371 0c0 .832-.681 1.512-1.513 1.512-.832 0-1.513-.68-1.513-1.512s.681-1.513 1.513-1.513c.845 0 1.513.668 1.513 1.513zM1.513 308.946a1.512 1.512 0 100-3.025 1.512 1.512 0 000 3.025zm17.371 0a1.512 1.512 0 100-3.025 1.512 1.512 0 000 3.025zm17.383 0a1.512 1.512 0 100-3.025 1.512 1.512 0 000 3.025zm17.371 0a1.512 1.512 0 100-3.025 1.512 1.512 0 000 3.025zm17.372 0a1.512 1.512 0 100-3.025 1.512 1.512 0 000 3.025zm17.37 0a1.512 1.512 0 100-3.025 1.512 1.512 0 000 3.025zm18.884-1.512c0 .831-.681 1.512-1.513 1.512a1.517 1.517 0 01-1.513-1.512c0-.832.681-1.513 1.513-1.513.832 0 1.513.681 1.513 1.513zm17.371 0c0 .831-.681 1.512-1.513 1.512a1.517 1.517 0 01-1.513-1.512c0-.832.681-1.513 1.513-1.513a1.51 1.51 0 011.513 1.513zm15.871 1.512a1.512 1.512 0 100-3.024 1.512 1.512 0 000 3.024zm17.371 0a1.512 1.512 0 100-3.024 1.512 1.512 0 000 3.024zm17.371 0a1.512 1.512 0 100-3.024 1.512 1.512 0 000 3.024zm17.371 0a1.512 1.512 0 100-3.024 1.512 1.512 0 000 3.024zm17.371 0a1.512 1.512 0 100-3.024 1.512 1.512 0 000 3.024zm17.371 0a1.512 1.512 0 100-3.024 1.512 1.512 0 000 3.024zm18.883-1.512c0 .831-.68 1.512-1.512 1.512a1.517 1.517 0 01-1.513-1.512c0-.832.681-1.513 1.513-1.513a1.51 1.51 0 011.512 1.513zm15.871 1.512a1.512 1.512 0 10.001-3.025 1.512 1.512 0 00-.001 3.025zm17.371 0a1.512 1.512 0 10.001-3.025 1.512 1.512 0 00-.001 3.025zm18.884-1.512c0 .831-.681 1.512-1.513 1.512a1.517 1.517 0 01-1.513-1.512c0-.832.681-1.513 1.513-1.513.832 0 1.513.681 1.513 1.513zm15.858 1.512a1.512 1.512 0 10.001-3.025 1.512 1.512 0 00-.001 3.025zm17.371 0a1.512 1.512 0 10.001-3.025 1.512 1.512 0 00-.001 3.025zm17.371 0a1.513 1.513 0 100-3.026 1.513 1.513 0 000 3.026zM1.513 325.939a1.513 1.513 0 100-3.025 1.513 1.513 0 000 3.025zm17.371 0a1.513 1.513 0 100-3.025 1.513 1.513 0 000 3.025zm17.383 0a1.513 1.513 0 100-3.025 1.513 1.513 0 000 3.025zm17.371 0a1.513 1.513 0 100-3.025 1.513 1.513 0 000 3.025zm17.372 0a1.513 1.513 0 100-3.025 1.513 1.513 0 000 3.025zm17.37 0a1.513 1.513 0 100-3.025 1.513 1.513 0 000 3.025zm18.884-1.513c0 .832-.681 1.513-1.513 1.513a1.518 1.518 0 01-1.513-1.513c0-.832.681-1.512 1.513-1.512.832 0 1.513.68 1.513 1.512zm17.371 0c0 .832-.681 1.513-1.513 1.513a1.518 1.518 0 01-1.513-1.513c0-.832.681-1.512 1.513-1.512.845 0 1.513.68 1.513 1.512zm15.871 1.513a1.512 1.512 0 100-3.025 1.512 1.512 0 000 3.025zm17.371 0a1.512 1.512 0 100-3.025 1.512 1.512 0 000 3.025zm17.371 0a1.512 1.512 0 100-3.025 1.512 1.512 0 000 3.025zm17.371 0a1.512 1.512 0 100-3.025 1.512 1.512 0 000 3.025zm17.371 0a1.512 1.512 0 100-3.025 1.512 1.512 0 000 3.025zm17.371 0a1.512 1.512 0 100-3.025 1.512 1.512 0 000 3.025zm18.883-1.513c0 .832-.68 1.513-1.512 1.513a1.518 1.518 0 01-1.513-1.513c0-.832.681-1.512 1.513-1.512.844 0 1.512.68 1.512 1.512zm15.871 1.513a1.512 1.512 0 10.001-3.025 1.512 1.512 0 00-.001 3.025zm17.371 0a1.512 1.512 0 10.001-3.025 1.512 1.512 0 00-.001 3.025zm18.884-1.513c0 .832-.681 1.513-1.513 1.513a1.518 1.518 0 01-1.513-1.513c0-.832.681-1.512 1.513-1.512.832 0 1.513.68 1.513 1.512zm15.858 1.513a1.512 1.512 0 10.001-3.025 1.512 1.512 0 00-.001 3.025zm17.371 0a1.512 1.512 0 10.001-3.025 1.512 1.512 0 00-.001 3.025zm17.371 0a1.513 1.513 0 100-3.026 1.513 1.513 0 000 3.026zM1.513 342.932a1.513 1.513 0 100-3.025 1.513 1.513 0 000 3.025zm17.371 0a1.513 1.513 0 100-3.025 1.513 1.513 0 000 3.025zm17.383 0a1.513 1.513 0 100-3.025 1.513 1.513 0 000 3.025zm17.371 0a1.513 1.513 0 100-3.025 1.513 1.513 0 000 3.025zm17.372 0a1.513 1.513 0 100-3.025 1.513 1.513 0 000 3.025zm17.37 0a1.513 1.513 0 100-3.025 1.513 1.513 0 000 3.025zm18.884-1.513c0 .832-.681 1.513-1.513 1.513a1.518 1.518 0 01-1.513-1.513c0-.832.681-1.513 1.513-1.513.832 0 1.513.681 1.513 1.513zm17.371 0c0 .832-.681 1.513-1.513 1.513a1.518 1.518 0 01-1.513-1.513c0-.832.681-1.513 1.513-1.513a1.51 1.51 0 011.513 1.513zm15.871 1.513a1.512 1.512 0 100-3.025 1.512 1.512 0 000 3.025zm17.371 0a1.512 1.512 0 100-3.025 1.512 1.512 0 000 3.025zm17.371 0a1.512 1.512 0 100-3.025 1.512 1.512 0 000 3.025zm17.371 0a1.512 1.512 0 100-3.025 1.512 1.512 0 000 3.025zm17.371 0a1.512 1.512 0 100-3.025 1.512 1.512 0 000 3.025zm17.371 0a1.512 1.512 0 100-3.025 1.512 1.512 0 000 3.025zm18.883-1.513c0 .832-.68 1.513-1.512 1.513a1.518 1.518 0 01-1.513-1.513c0-.832.681-1.513 1.513-1.513a1.51 1.51 0 011.512 1.513zm15.871 1.513a1.512 1.512 0 10.001-3.025 1.512 1.512 0 00-.001 3.025zm17.371 0a1.512 1.512 0 10.001-3.025 1.512 1.512 0 00-.001 3.025zm18.884-1.513c0 .832-.681 1.513-1.513 1.513a1.518 1.518 0 01-1.513-1.513c0-.832.681-1.513 1.513-1.513.832 0 1.513.681 1.513 1.513zm15.858 1.513a1.512 1.512 0 10.001-3.025 1.512 1.512 0 00-.001 3.025zm17.371 0a1.512 1.512 0 10.001-3.025 1.512 1.512 0 00-.001 3.025zm17.371 0a1.513 1.513 0 100-3.026 1.513 1.513 0 000 3.026zM1.513 359.925a1.513 1.513 0 10-.001-3.027 1.513 1.513 0 000 3.027zm17.371 0a1.513 1.513 0 10-.001-3.027 1.513 1.513 0 000 3.027zm17.383 0a1.513 1.513 0 100-3.027 1.513 1.513 0 000 3.027zm17.371 0a1.513 1.513 0 100-3.026 1.513 1.513 0 000 3.026zm17.372 0a1.513 1.513 0 10-.002-3.027 1.513 1.513 0 00.001 3.027zm17.37 0a1.513 1.513 0 100-3.027 1.513 1.513 0 000 3.027zm18.884-1.513c0 .832-.681 1.513-1.513 1.513a1.518 1.518 0 01-1.513-1.513c0-.832.681-1.513 1.513-1.513.832.013 1.513.681 1.513 1.513zm17.371 0c0 .832-.681 1.513-1.513 1.513a1.518 1.518 0 01-1.513-1.513c0-.832.681-1.513 1.513-1.513a1.518 1.518 0 011.513 1.513zm15.871 1.513a1.513 1.513 0 10-.002-3.026 1.513 1.513 0 00.002 3.026zm17.371 0a1.513 1.513 0 10-.002-3.026 1.513 1.513 0 00.002 3.026zm17.371 0a1.513 1.513 0 10-.002-3.026 1.513 1.513 0 00.002 3.026zm17.371 0a1.513 1.513 0 10-.002-3.026 1.513 1.513 0 00.002 3.026zm17.371 0a1.513 1.513 0 10-.002-3.026 1.513 1.513 0 00.002 3.026zm17.371 0a1.513 1.513 0 10-.002-3.026 1.513 1.513 0 00.002 3.026zm18.883-1.513c0 .832-.68 1.513-1.512 1.513a1.518 1.518 0 01-1.513-1.513c0-.832.681-1.513 1.513-1.513a1.517 1.517 0 011.512 1.513zm15.871 1.513a1.513 1.513 0 100-3.026 1.513 1.513 0 000 3.026zm17.371 0a1.513 1.513 0 100-3.026 1.513 1.513 0 000 3.026zm18.884-1.513c0 .832-.681 1.513-1.513 1.513a1.518 1.518 0 01-1.513-1.513c0-.832.681-1.513 1.513-1.513.832.013 1.513.681 1.513 1.513zm15.858 1.513a1.513 1.513 0 100-3.026 1.513 1.513 0 000 3.026zm17.371 0a1.513 1.513 0 100-3.026 1.513 1.513 0 000 3.026zm17.371 0a1.514 1.514 0 10-.002-3.028 1.514 1.514 0 00.002 3.028zM1.513 376.93a1.513 1.513 0 100-3.025 1.513 1.513 0 000 3.025zm17.371 0a1.513 1.513 0 100-3.025 1.513 1.513 0 000 3.025zm17.383 0a1.513 1.513 0 100-3.025 1.513 1.513 0 000 3.025zm17.371 0a1.513 1.513 0 100-3.025 1.513 1.513 0 000 3.025zm17.372 0a1.513 1.513 0 100-3.025 1.513 1.513 0 000 3.025zm17.37 0a1.513 1.513 0 100-3.025 1.513 1.513 0 000 3.025zm18.884-1.513c0 .832-.681 1.513-1.513 1.513a1.518 1.518 0 01-1.513-1.513c0-.832.681-1.512 1.513-1.512a1.51 1.51 0 011.513 1.512zm17.371 0c0 .832-.681 1.513-1.513 1.513a1.518 1.518 0 01-1.513-1.513c0-.832.681-1.512 1.513-1.512a1.5 1.5 0 011.513 1.512zm15.871 1.513a1.512 1.512 0 100-3.025 1.512 1.512 0 000 3.025zm17.371 0a1.512 1.512 0 100-3.025 1.512 1.512 0 000 3.025zm17.371 0a1.512 1.512 0 100-3.025 1.512 1.512 0 000 3.025zm17.371 0a1.512 1.512 0 100-3.025 1.512 1.512 0 000 3.025zm17.371 0a1.512 1.512 0 100-3.025 1.512 1.512 0 000 3.025zm17.371 0a1.512 1.512 0 100-3.025 1.512 1.512 0 000 3.025zm18.883-1.513c0 .832-.68 1.513-1.512 1.513a1.518 1.518 0 01-1.513-1.513c0-.832.681-1.512 1.513-1.512a1.5 1.5 0 011.512 1.512zm15.871 1.513a1.512 1.512 0 10.001-3.025 1.512 1.512 0 00-.001 3.025zm17.371 0a1.512 1.512 0 10.001-3.025 1.512 1.512 0 00-.001 3.025zm18.884-1.513c0 .832-.681 1.513-1.513 1.513a1.518 1.518 0 01-1.513-1.513c0-.832.681-1.512 1.513-1.512a1.51 1.51 0 011.513 1.512zm15.858 1.513a1.512 1.512 0 10.001-3.025 1.512 1.512 0 00-.001 3.025zm17.371 0a1.512 1.512 0 10.001-3.025 1.512 1.512 0 00-.001 3.025zm17.371 0a1.513 1.513 0 100-3.026 1.513 1.513 0 000 3.026z" fill="#BB8E34" fill-opacity=".5"/></svg>