<svg width="16" height="16" fill="none" xmlns="http://www.w3.org/2000/svg"><path d="M5.25 12.214c-.825 0-1.493.675-1.493 1.5s.668 1.5 1.493 1.5c.825 0 1.5-.675 1.5-1.5s-.675-1.5-1.5-1.5zM.75.964c0 .412.337.75.75.75h.75l2.7 5.692-1.013 1.83c-.547 1.005.173 2.228 1.313 2.228h8.25c.412 0 .75-.338.75-.75a.752.752 0 00-.75-.75H5.25l.825-1.5h5.587c.563 0 1.058-.308 1.313-.773l2.685-4.867a.747.747 0 00-.652-1.11h-11.1L3.405.64A.744.744 0 002.73.214H1.5a.752.752 0 00-.75.75zm12 11.25c-.825 0-1.492.675-1.492 1.5s.667 1.5 1.492 1.5 1.5-.675 1.5-1.5-.675-1.5-1.5-1.5z" fill="#fff"/></svg>