<svg width="24" height="28" fill="none" xmlns="http://www.w3.org/2000/svg"><path d="M21.333 6.667h-2.666A6.67 6.67 0 0012 0a6.67 6.67 0 00-6.667 6.667H2.667A2.675 2.675 0 000 9.333v16C0 26.8 1.2 28 2.667 28h18.666C22.8 28 24 26.8 24 25.333v-16c0-1.466-1.2-2.666-2.667-2.666zm-9.333-4c2.213 0 4 1.786 4 4H8c0-2.214 1.787-4 4-4zM12 16a6.654 6.654 0 01-6.453-5c-.227-.84.426-1.667 1.293-1.667.627 0 1.133.454 1.307 1.067A3.996 3.996 0 0012 13.333c1.84 0 3.387-1.24 3.853-2.933.174-.613.68-1.067 1.307-1.067A1.34 1.34 0 0118.453 11 6.654 6.654 0 0112 16z" fill="#27AE60"/></svg>