<svg width="19" height="20" fill="none" xmlns="http://www.w3.org/2000/svg"><path d="M13.792 12.88h-.856l-.303-.292a7.042 7.042 0 001.603-5.785c-.51-3.011-3.023-5.416-6.056-5.785C3.597.455-.248 4.312.304 8.894c.368 3.033 2.773 5.547 5.785 6.056a7.042 7.042 0 005.785-1.603l.293.303v.856l4.615 4.604a1.131 1.131 0 001.603 0l.01-.01a1.131 1.131 0 000-1.604l-4.603-4.615zm-6.5 0a4.868 4.868 0 01-4.875-4.874A4.868 4.868 0 017.292 3.13a4.869 4.869 0 014.875 4.875 4.868 4.868 0 01-4.875 4.875zm0-7.583a.536.536 0 00-.542.542v1.625H5.125a.536.536 0 00-.542.542c0 .303.239.541.542.541H6.75v1.625c0 .304.238.542.542.542a.536.536 0 00.541-.542V8.547h1.625A.536.536 0 0010 8.006a.536.536 0 00-.542-.542H7.833V5.84a.536.536 0 00-.541-.542z" fill="#C9CCCF"/></svg>