<svg width="49" height="50" fill="none" xmlns="http://www.w3.org/2000/svg"><g clip-path="url(#clip0)"><g clip-path="url(#clip1)"><path fill-rule="evenodd" clip-rule="evenodd" d="M9.293 14.793a1 1 0 011.414 0l4.364 4.364a1 1 0 01-1.414 1.414L11 17.914V21.5c0 .944-.312 1.723-.553 2.324l-.019.047C10.171 24.515 10 24.97 10 25.5c0 .15.047.33.199.647.037.077.093.186.159.313.135.263.31.602.436.896.458 1.069.736 2.43.167 4.419a1 1 0 01-1.923-.55c.432-1.51.21-2.4-.082-3.081-.109-.254-.203-.433-.307-.632-.076-.145-.158-.3-.254-.502C8.203 26.608 8 26.1 8 25.5c0-.944.312-1.723.552-2.324l.02-.047C8.828 22.485 9 22.03 9 21.5v-3.586l-2.657 2.657a1 1 0 01-1.414-1.414l4.364-4.364zm29 0a1 1 0 011.414 0l4.364 4.364a1 1 0 01-1.414 1.414L40 17.914V21.5c0 .944-.312 1.723-.553 2.324l-.019.047C39.171 24.515 39 24.97 39 25.5c0 .15.047.33.199.647.037.077.093.186.159.313.135.263.31.602.436.896.458 1.069.736 2.43.168 4.419a1 1 0 01-1.924-.55c.432-1.51.21-2.4-.082-3.081a8.196 8.196 0 00-.307-.632c-.076-.145-.157-.3-.254-.502-.193-.402-.395-.91-.395-1.51 0-.944.312-1.723.552-2.324l.02-.047c.257-.644.428-1.098.428-1.629v-3.586l-2.657 2.657a1 1 0 01-1.414-1.414l4.364-4.364z" fill="#F7F896"/><path d="M13.925 14.384c.18 0 .355-.059.497-.169l8.232-6.329a.817.817 0 00-.995-1.295l-8.232 6.33a.817.817 0 00.498 1.463zm11.433-8.983a.817.817 0 11-1.634 0 .817.817 0 011.634 0z" fill="#27AE60"/><path fill-rule="evenodd" clip-rule="evenodd" d="M40.057 12.482a2.494 2.494 0 00-1.014-2.017L25.983.981a2.403 2.403 0 00-2.877-.005L10.03 10.473a2.487 2.487 0 00-1.005 2.009v1.271c.502-.28 1.1-.328 1.633-.142v-1.13a.863.863 0 01.341-.695l13.074-9.494a.774.774 0 01.943.005l13.057 9.482a.869.869 0 01.351.703v1.102a2.004 2.004 0 011.633.218v-1.32zm-.268 3.807l-.79-.789-.508.509a.817.817 0 001.298.28zM9.842 16.5a.814.814 0 01-.59-.252L10 15.5l.564.564a.816.816 0 01-.722.436zM8.93 33.19L4.415 47.867h40.253l-4.53-14.722c.367-.254.653-.632.785-1.096a9.23 9.23 0 00.12-.46c.229.089.41.277.486.522l4.7 15.275a1.635 1.635 0 01-1.561 2.114H4.414a1.634 1.634 0 01-1.561-2.114l4.7-15.276a.817.817 0 01.45-.506c.033.645.379 1.24.927 1.587zm2.634-6.556h10.973c.095.317.215.59.32.807.104.219.193.388.269.532l.001.003c.055.105.103.197.15.291h-8.78c0 .902.73 1.634 1.633 1.634h7.506c-.02.296-.078.64-.195 1.05a2 2 0 00-.077.583H16.13a3.267 3.267 0 01-3.266-3.267H9.475l.478-1.633h1.61zm25.657 5.78a2.859 2.859 0 00-2.838-2.513H27.64a8.404 8.404 0 01-.22 1.633h6.963a1.225 1.225 0 110 2.45h-20.27a3.267 3.267 0 100 6.533h21.64a2.041 2.041 0 010 4.083H12.535a.817.817 0 100 1.633h23.216a3.675 3.675 0 000-7.35h-21.64a1.633 1.633 0 110-3.266h20.27a2.858 2.858 0 002.839-3.204zm-.309-4.147h-9.415a7.034 7.034 0 00-.42-1.305 9.194 9.194 0 00-.15-.328h9.246c.095.317.215.59.32.807.104.219.193.388.269.532l.001.003c.055.105.103.197.15.291zm-17.271-6.936a2.115 2.115 0 01-.055-.053l.055-.055v.108zm6.17 5.303h-2.217c.052.134.109.26.165.376.096.202.178.357.254.502.104.199.198.378.307.632l.05.123h2.1a6.162 6.162 0 00-.312-.91c-.1-.234-.23-.494-.347-.723zm.829 3.267h-2.002c-.02.382-.091.818-.236 1.324a1 1 0 00-.038.309h2.027a7.63 7.63 0 00.249-1.633z" fill="#27AE60"/><path fill-rule="evenodd" clip-rule="evenodd" d="M24.657 14.793a1 1 0 011.414 0l4.364 4.364a1 1 0 11-1.414 1.414l-2.657-2.657V21.5c0 .944-.312 1.723-.553 2.324l-.019.047c-.257.644-.428 1.098-.428 1.629 0 .15.047.33.199.647.037.077.093.186.159.313.135.263.31.602.436.896.458 1.069.736 2.43.168 4.419a1 1 0 11-1.924-.55c.432-1.51.21-2.4-.082-3.081a8.194 8.194 0 00-.307-.632c-.076-.145-.158-.3-.254-.502-.192-.402-.395-.91-.395-1.51 0-.944.312-1.723.552-2.324l.02-.047c.257-.644.428-1.098.428-1.629v-3.586l-2.657 2.657a1 1 0 01-1.414-1.414l4.364-4.364z" fill="#222F3C"/><path fill-rule="evenodd" clip-rule="evenodd" d="M9.293 14.793a1 1 0 011.414 0l4.364 4.364a1 1 0 01-1.414 1.414L11 17.914V21.5c0 .944-.312 1.723-.553 2.324l-.019.047C10.171 24.515 10 24.97 10 25.5c0 .15.047.33.199.647.037.077.093.186.159.313.135.263.31.602.436.896.458 1.069.736 2.43.167 4.419a1 1 0 01-1.923-.55c.432-1.51.21-2.4-.082-3.081-.109-.254-.203-.433-.307-.632-.076-.145-.158-.3-.254-.502C8.203 26.608 8 26.1 8 25.5c0-.944.312-1.723.552-2.324l.02-.047C8.828 22.485 9 22.03 9 21.5v-3.586l-2.657 2.657a1 1 0 01-1.414-1.414l4.364-4.364zm29 0a1 1 0 011.414 0l4.364 4.364a1 1 0 01-1.414 1.414L40 17.914V21.5c0 .944-.312 1.723-.553 2.324l-.019.047C39.171 24.515 39 24.97 39 25.5c0 .15.047.33.199.647.037.077.093.186.159.313.135.263.31.602.436.896.458 1.069.736 2.43.168 4.419a1 1 0 01-1.924-.55c.432-1.51.21-2.4-.082-3.081a8.196 8.196 0 00-.307-.632c-.076-.145-.157-.3-.254-.502-.193-.402-.395-.91-.395-1.51 0-.944.312-1.723.552-2.324l.02-.047c.257-.644.428-1.098.428-1.629v-3.586l-2.657 2.657a1 1 0 01-1.414-1.414l4.364-4.364zm-13.636 0a1 1 0 011.414 0l4.364 4.364a1 1 0 11-1.414 1.414l-2.657-2.657V21.5c0 .944-.312 1.723-.553 2.324l-.019.047c-.257.644-.428 1.098-.428 1.629 0 .15.047.33.199.647.037.077.093.186.159.313.135.263.31.602.436.896.458 1.069.736 2.43.168 4.419a1 1 0 11-1.924-.55c.432-1.51.21-2.4-.082-3.081a8.194 8.194 0 00-.307-.632c-.076-.145-.158-.3-.254-.502-.192-.402-.395-.91-.395-1.51 0-.944.312-1.723.552-2.324l.02-.047c.257-.644.428-1.098.428-1.629v-3.586l-2.657 2.657a1 1 0 01-1.414-1.414l4.364-4.364z" fill="#F7F896"/></g></g><defs><clipPath id="clip0"><path fill="#fff" transform="translate(0 .5)" d="M0 0h49v49H0z"/></clipPath><clipPath id="clip1"><path fill="#fff" transform="translate(0 .5)" d="M0 0h49v49H0z"/></clipPath></defs></svg>