<svg width="50" height="50" fill="none" xmlns="http://www.w3.org/2000/svg"><g clip-path="url(#clip0)"><path d="M25.999 13.452L14.007 1.463a3.266 3.266 0 00-4.616 0L1.308 9.546a3.266 3.266 0 000 4.616l1.017 1.017v.005h.005l2.303 2.303v.006h.006l2.303 2.302 2.303 2.303h.004L11.55 24.4v.005h.005l1.728 1.727 1.17-1.134-1.156-1.155.576-.577a.816.816 0 00-1.154-1.155l-.576.578-1.155-1.155 1.154-1.154a.817.817 0 10-1.154-1.155L9.834 20.38l-1.156-1.155.576-.576A.816.816 0 108.1 17.494l-.576.576-1.154-1.154 1.154-1.155a.816.816 0 00-1.154-1.154L5.215 15.76l-1.154-1.155.577-.576a.817.817 0 10-1.155-1.155l-.576.577-.444-.444a1.633 1.633 0 010-2.308l8.082-8.082a1.633 1.633 0 012.306 0l11.992 11.99 1.156-1.156zM23.69 36.547l1.724 1.724v.004h.005l2.3 2.3v.007l.006.004 2.3 2.3v.005h.006l2.3 2.3v.005h.006l2.299 2.3.005.006.006.005 1.016 1.015a3.265 3.265 0 004.616 0l8.082-8.082a3.265 3.265 0 000-4.616l-11.973-11.98-1.155 1.154 11.99 11.992c.636.637.636 1.67 0 2.307l-8.083 8.082a1.633 1.633 0 01-2.306 0l-.445-.444.577-.571a.816.816 0 10-1.155-1.155l-.577.576-1.153-1.16 1.153-1.154a.817.817 0 10-1.155-1.154l-1.154 1.153-1.155-1.154.577-.576a.816.816 0 00-1.155-1.155l-.576.577-1.155-1.155 1.154-1.153a.817.817 0 10-1.154-1.155l-1.153 1.154-1.155-1.156.576-.576a.816.816 0 10-1.154-1.154l-.577.576-1.155-1.154-1.154 1.158z" fill="#F7F896"/><path fill-rule="evenodd" clip-rule="evenodd" d="M6.16 48.3a4.09 4.09 0 005.774 0l6.405-6.402 5.35-5.35 1.154-1.16 10.39-10.39 1.155-1.154 8.351-8.352a4.862 4.862 0 001.225-2.04l3.295-10.83A1.628 1.628 0 0047.226.58L36.392 3.876A4.85 4.85 0 0034.35 5.1l-8.352 8.352-1.156 1.156-10.39 10.39-1.17 1.134L1.527 37.888a4.087 4.087 0 000 5.773L6.16 48.3zm36.923-33.46L18.032 39.892l-3.464-3.464L39.62 11.376l3.463 3.464zM16.876 41.047l-2.927 2.928-8.083-8.083 2.928-2.927 8.082 8.082zM47.702 2.14l-1.08 3.54-2.463-2.462 3.543-1.078zM36.867 5.438l5.522-1.682 3.694 3.694-1.68 5.526a3.273 3.273 0 01-.27.607L36.26 5.707c.193-.11.396-.201.608-.27zm-1.866 1.32l3.464 3.463-25.052 25.052L9.95 31.81 35.001 6.758zM2.697 39.062l2.016-2.016 8.082 8.082-2.016 2.016a2.453 2.453 0 01-3.464 0l-4.618-4.618a2.45 2.45 0 010-3.464z" fill="#27AE60"/></g><defs><clipPath id="clip0"><path fill="#fff" transform="translate(.333 .5)" d="M0 0h49v49H0z"/></clipPath></defs></svg>