<svg width="50" height="50" fill="none" xmlns="http://www.w3.org/2000/svg"><g clip-path="url(#clip0)"><path d="M48.672 17.46L28.023 1.496a4.977 4.977 0 00-5.733.014L1.678 17.447a2.3 2.3 0 00-.896 2.624 2.611 2.611 0 002.333 1.734v24.517a3.27 3.27 0 003.267 3.267H43.95a3.27 3.27 0 003.267-3.267V21.805a2.611 2.611 0 002.333-1.734 2.291 2.291 0 00-.878-2.61zM43.95 47.956H6.382a1.635 1.635 0 01-1.633-1.634V21.361L25.183 5.498l20.4 15.863v24.961a1.635 1.635 0 01-1.633 1.634zm4.047-28.392a.996.996 0 01-1.01.625h-.25L26.1 4.14c-.01-.007-.023-.009-.032-.016-.01-.008-.016-.018-.026-.025a1.665 1.665 0 00-1.81.04L3.595 20.19h-.251a.996.996 0 01-1.009-.625.693.693 0 01.325-.812L23.27 2.816a3.291 3.291 0 013.773-.014L47.69 18.765a.68.68 0 01.307.8z" fill="#27AE60"/><path d="M19.088 27.605l7.579-10.406 7.578 10.406c4.513 6.196.087 14.895-7.578 14.895-7.666 0-12.092-8.699-7.579-14.895z" stroke="#F7F896" stroke-width="2"/><path fill-rule="evenodd" clip-rule="evenodd" d="M12.848 25.277l4.935-6.777 3.884 5.332-1.423 1.445-2.46-3.38-3.32 4.557c-1.976 2.713-.037 6.523 3.32 6.523v2c-4.993 0-7.875-5.665-4.936-9.7z" fill="#F7F896"/><path d="M26.274 37.977c-1.666 0-2.982-.939-3.644-2.216-.3-.577-1.016-.933-1.587-.62-.384.21-.579.661-.41 1.065.889 2.138 2.961 3.77 5.642 3.77 1.81 0 3.345-.745 4.423-1.888.319-.339.276-.863-.047-1.196-.438-.45-1.187-.357-1.655.061a4.04 4.04 0 01-2.721 1.024z" fill="#F7F896"/></g><defs><clipPath id="clip0"><path fill="#fff" transform="translate(.667 .5)" d="M0 0h49v49H0z"/></clipPath></defs></svg>