<svg width="49" height="50" fill="none" xmlns="http://www.w3.org/2000/svg"><g clip-path="url(#clip0)"><path d="M48.005 17.46L27.356 1.496a4.977 4.977 0 00-5.733.014L1.011 17.447a2.3 2.3 0 00-.896 2.624 2.611 2.611 0 002.333 1.734v24.517a3.27 3.27 0 003.267 3.267h37.568a3.27 3.27 0 003.267-3.267V21.805a2.611 2.611 0 002.333-1.734 2.292 2.292 0 00-.878-2.61zm-4.722 30.496H5.715a1.635 1.635 0 01-1.633-1.634V21.361L24.516 5.498l20.4 15.863v24.961a1.635 1.635 0 01-1.633 1.634zm4.047-28.392a.996.996 0 01-1.009.625h-.25L25.433 4.14c-.01-.007-.022-.009-.032-.016-.01-.008-.015-.018-.026-.025a1.665 1.665 0 00-1.81.04L2.928 20.19h-.25a.996.996 0 01-1.01-.625.693.693 0 01.325-.812l20.61-15.936a3.291 3.291 0 013.773-.014l20.647 15.963a.68.68 0 01.307.8z" fill="#27AE60"/><path d="M32.02 24.299a.816.816 0 00-.377 1.01 3.08 3.08 0 01-.613 2.603 2.822 2.822 0 01-2.382 1.249c-1.302-.071-1.6-.614-1.697-.792-.505-.921-.04-2.694.68-3.972 1.65-2.944-.795-5.502-1.584-6.215a3.104 3.104 0 00-.094-.077 54.752 54.752 0 00-7.474-4.791l-.003-.002-.003-.001a.817.817 0 00-.788 1.43 5.36 5.36 0 01.634 1.764c.042.165.078.306.106.398.244.847.36 1.725.344 2.606a9.143 9.143 0 01-1.59 4.735 29.385 29.385 0 01-2.56 3.33 34.854 34.854 0 00-2.45 3.135 8.54 8.54 0 00-.005 9.85c2.57 3.63 7.545 5.76 12.54 5.76 1.898.01 3.783-.315 5.57-.957a13.075 13.075 0 006.858-5.54c2.567-4.498 1.2-9.676-4.064-15.39a.903.903 0 00-1.047-.133zM21.89 35.636c-.15-.105-.609-.426-.08-1.259.46-.588.944-1.153 1.45-1.693.077.337.192.665.343.976.704 1.449 2.453 2.45 4.146 3.42 1.625.93 3.307 1.894 3.578 3.005a2.06 2.06 0 01-.416 1.595 6.506 6.506 0 01-3.167 2.31c-2.283.845-5.686.965-7.768-.44a3.103 3.103 0 01-.783-.733 3.244 3.244 0 01-.526-2.296c.02-.201.121-.742.244-1.26.05.04.102.08.156.118a3.21 3.21 0 002.908.473c1.143-.398 1.463-1.07 1.53-1.564.183-1.33-1.314-2.443-1.614-2.652zm13.824 3.376a10.552 10.552 0 01-3.407 3.51c.587-.816.806-1.84.606-2.824-.436-1.793-2.427-2.933-4.353-4.036-1.477-.846-3.004-1.721-3.488-2.716a2.87 2.87 0 01-.275-.967 4.498 4.498 0 00-.025-.212 3.854 3.854 0 01-.044-.549.816.816 0 00-1.225-1.061l-.007.005a25.846 25.846 0 00-2.973 3.21c-.016.02-.046.061-.06.083-.852 1.335-.658 2.716.495 3.521.423.246.751.625.933 1.08 0 0-.073.12-.454.254a1.58 1.58 0 01-1.345-.21 1.058 1.058 0 01-.48-.524.817.817 0 00-.721-.815 1.245 1.245 0 00-.154-.01c-1.25.032-1.614 2.773-1.695 3.611a5.132 5.132 0 00.361 2.58 11.15 11.15 0 01-3.907-3.329 6.938 6.938 0 01.035-8 33.357 33.357 0 012.335-2.984 31.017 31.017 0 002.699-3.522 10.833 10.833 0 001.837-5.567 10.48 10.48 0 00-.41-3.091 11.072 11.072 0 01-.09-.348l-.036-.136a54.597 54.597 0 015.085 3.429c.562.508 2.315 2.314 1.257 4.203-.874 1.549-1.58 3.934-.69 5.557a3.385 3.385 0 003.039 1.638 4.393 4.393 0 003.79-1.914 5.45 5.45 0 00.865-1.78c3.61 4.493 4.453 8.495 2.502 11.914z" fill="#F7F896"/></g><defs><clipPath id="clip0"><path fill="#fff" transform="translate(0 .5)" d="M0 0h49v49H0z"/></clipPath></defs></svg>