<svg width="50" height="50" fill="none" xmlns="http://www.w3.org/2000/svg"><g clip-path="url(#clip0)"><path d="M22.5 16.833h4.9a.817.817 0 000-1.633h-4.9a.817.817 0 000 1.633zm3.266 28.583a.817.817 0 11-1.633 0 .817.817 0 011.633 0zm4.901-17.149a.817.817 0 11-1.634 0 .817.817 0 011.634 0z" fill="#F7F896"/><path fill-rule="evenodd" clip-rule="evenodd" d="M35.567 25v22.05a2.453 2.453 0 01-2.45 2.45H16.783a2.453 2.453 0 01-2.45-2.45V14.383a2.453 2.453 0 012.45-2.45h16.334a2.453 2.453 0 012.45 2.45V25zM16.783 13.567h16.334c.45 0 .816.365.816.816v4.084H15.967v-4.084c0-.45.366-.816.816-.816zm-.816 6.533h17.966v21.233H15.967V20.1zm17.15 27.767H16.783a.818.818 0 01-.816-.817v-4.083h17.966v4.083c0 .45-.366.816-.816.817z" fill="#27AE60"/><path d="M20.05 21.733h-1.633a.817.817 0 100 1.634h1.633a.817.817 0 000-1.634zm9.8 0h-6.533a.817.817 0 100 1.634h6.533a.817.817 0 100-1.634zm-4.181 5.497a1.01 1.01 0 00-.702 1.037c0 .076-.004.152-.01.228a2.42 2.42 0 01-.82 1.566 6.63 6.63 0 01-.93.67c-.454.27-.877.587-1.262.946a3.774 3.774 0 00-1.057 3.1 4.122 4.122 0 001.8 3.04c.263.166.568.253.879.25h2.673c.465.003.909-.193 1.22-.539 2.683-3.028 1.383-7.026.191-8.911-.704-1.116-1.356-1.568-1.982-1.386zm.571 9.203h-2.673l.008.013a2.48 2.48 0 01-1.061-1.835 2.15 2.15 0 01.578-1.77c.306-.279.64-.524.995-.734.41-.246.798-.53 1.158-.845a4.215 4.215 0 001.115-1.622c.506.857.842 1.803.987 2.787a4.757 4.757 0 01-1.107 4.006z" fill="#F7F896"/><g clip-path="url(#clip1)"><path d="M48.338 17.46L27.689 1.496a4.977 4.977 0 00-5.733.014L1.345 17.447a2.3 2.3 0 00-.895 2.624 2.611 2.611 0 002.333 1.734v17.517a3.27 3.27 0 003.266 3.267h37.568a3.27 3.27 0 003.267-3.267V21.805a2.611 2.611 0 002.333-1.734 2.291 2.291 0 00-.878-2.61zm-4.722 23.496H6.048a1.635 1.635 0 01-1.633-1.634V21.361L24.85 5.498l20.4 15.863v17.961a1.635 1.635 0 01-1.634 1.634zm4.047-21.392a.996.996 0 01-1.009.625h-.25L25.766 4.14c-.01-.007-.022-.009-.032-.016-.01-.008-.015-.018-.026-.025a1.665 1.665 0 00-1.81.04L3.261 20.19h-.25A.996.996 0 012 19.564a.693.693 0 01.325-.812l20.61-15.936a3.291 3.291 0 013.773-.014l20.648 15.963a.68.68 0 01.306.8z" fill="#27AE60"/></g></g><defs><clipPath id="clip0"><path fill="#fff" transform="translate(.333 .5)" d="M0 0h49v49H0z"/></clipPath><clipPath id="clip1"><path fill="#fff" transform="translate(.333 .5)" d="M0 0h49v49H0z"/></clipPath></defs></svg>