<svg width="50" height="50" fill="none" xmlns="http://www.w3.org/2000/svg"><g clip-path="url(#clip0)"><path d="M45.583 7.87H4.75a4.088 4.088 0 00-4.083 4.083v26.133a4.088 4.088 0 004.083 4.083h40.833a4.088 4.088 0 004.084-4.083V11.953a4.088 4.088 0 00-4.084-4.084zm2.45 30.216a2.453 2.453 0 01-2.45 2.45H4.75a2.453 2.453 0 01-2.45-2.45V11.953a2.453 2.453 0 012.45-2.45h40.833a2.453 2.453 0 012.45 2.45v26.133z" fill="#27AE60"/><path d="M43.95 13.586h-8.167a2.453 2.453 0 00-2.45 2.45v18.783a2.453 2.453 0 002.45 2.45h8.167a2.453 2.453 0 002.45-2.45V16.036a2.453 2.453 0 00-2.45-2.45zm.817 21.233a.818.818 0 01-.817.817h-8.167a.818.818 0 01-.816-.817V16.036c0-.451.366-.816.816-.817h8.167c.45 0 .816.366.817.817v18.783z" fill="#27AE60"/><path d="M42.894 17.908a.818.818 0 00-1.154 0l-.224.224a3.234 3.234 0 00-1.65-.463 3.271 3.271 0 00-3.266 3.267c.003.58.163 1.15.463 1.649l-.224.223a.816.816 0 101.155 1.155l.224-.224c.498.3 1.068.46 1.649.464a3.27 3.27 0 003.267-3.267 3.233 3.233 0 00-.463-1.649l.223-.224a.816.816 0 000-1.155zm-3.027 4.661c-.433 0-.848-.171-1.153-.477l-.001-.002-.002-.002a1.632 1.632 0 012.309-2.308v.002h.002a1.633 1.633 0 01-1.155 2.787zm3.027 4.323a.817.817 0 00-1.154 0l-.224.223a3.23 3.23 0 00-1.65-.463A3.27 3.27 0 0036.6 29.92c.003.581.163 1.151.463 1.649l-.224.224a.816.816 0 101.155 1.154l.224-.223c.498.3 1.068.46 1.649.463a3.27 3.27 0 003.267-3.267 3.234 3.234 0 00-.463-1.649l.223-.224a.816.816 0 000-1.154zm-3.027 4.66c-.433 0-.848-.17-1.153-.477l-.001-.002-.002-.001a1.632 1.632 0 012.309-2.308l.002.002a1.633 1.633 0 01-1.155 2.786zm-8.662-2.916a.794.794 0 00.072-.277 13.398 13.398 0 000-6.68.793.793 0 00-.072-.277 13.78 13.78 0 00-1.311-3.206.808.808 0 00-.123-.201 13.966 13.966 0 00-2.673-3.272.8.8 0 00-.19-.173 13.808 13.808 0 00-18.182 0 .8.8 0 00-.19.173 13.97 13.97 0 00-2.674 3.272.794.794 0 00-.123.201 13.795 13.795 0 00-1.311 3.206.81.81 0 00-.072.278 13.39 13.39 0 000 6.679c.007.096.032.19.072.277.3 1.12.741 2.197 1.311 3.206.031.073.072.14.123.202a13.97 13.97 0 002.673 3.27.8.8 0 00.191.174 13.808 13.808 0 0018.181 0 .8.8 0 00.19-.173 13.966 13.966 0 002.674-3.271.808.808 0 00.123-.202 13.78 13.78 0 001.311-3.206zm-5.088 5.366h-7.483V32.37h8.96a12.308 12.308 0 01-1.477 1.633zM6.99 19.302H17v1.634H6.28a12.2 12.2 0 01.71-1.634zm2.526-3.266H17v1.633H8.04c.443-.587.937-1.134 1.477-1.633zm9.117 9.8h11.391a12.29 12.29 0 01-.205 1.633H18.634v-1.633zM17 27.469H5.814a12.25 12.25 0 01-.206-1.633H17v1.633zm1.634-3.266v-1.634H29.82c.105.54.173 1.085.205 1.634H18.634zm0-3.267v-1.634h10.009c.276.527.513 1.073.709 1.634H18.634zm0-3.267v-1.633h7.483c.54.5 1.034 1.046 1.476 1.633h-8.96zm0-3.267v-1.591c1.854.12 3.657.665 5.268 1.591h-5.268zm-1.634 0h-5.268A12.142 12.142 0 0117 12.811v1.591zm0 8.167v1.634H5.608c.032-.549.1-1.095.206-1.634H17zm0 6.534v1.633H6.99a12.172 12.172 0 01-.709-1.634h10.72zm0 3.266v1.633H9.517a12.364 12.364 0 01-1.477-1.633H17zm0 3.267v1.592a12.145 12.145 0 01-5.268-1.592H17zm1.634 0h5.268a12.147 12.147 0 01-5.268 1.592v-1.592zm0-4.9v-1.634h10.718a12.176 12.176 0 01-.71 1.634H18.635z" fill="#F7F896"/></g><defs><clipPath id="clip0"><path fill="#fff" transform="translate(.667 .5)" d="M0 0h49v49H0z"/></clipPath></defs></svg>