<svg width="49" height="50" fill="none" xmlns="http://www.w3.org/2000/svg"><g clip-path="url(#clip0)"><path d="M38.045 1.775a72.392 72.392 0 00-27.055 0 2.45 2.45 0 00-1.987 2.413v34.285a2.451 2.451 0 001.986 2.412c.97.184 1.941.338 2.913.482v1.687a2.44 2.44 0 001.999 2.413c.15.026.3.045.451.07v2.33a1.635 1.635 0 001.633 1.633h3.266a1.635 1.635 0 001.633-1.633V46.2c.544.018 1.089.036 1.633.036.545 0 1.089-.018 1.633-.036v1.667a1.635 1.635 0 001.633 1.633h3.267a1.635 1.635 0 001.633-1.633v-2.33c.15-.025.3-.044.45-.07a2.44 2.44 0 001.999-2.413v-1.687a73.494 73.494 0 002.913-.481 2.45 2.45 0 001.986-2.413V4.188a2.45 2.45 0 00-1.986-2.413zM10.636 6.548a85.484 85.484 0 0127.762 0v29.564a85.465 85.465 0 01-27.762 0V6.548zm.658-3.168a70.781 70.781 0 0126.448 0c.384.077.66.416.656.808v.722a87.12 87.12 0 00-27.762 0v-.722a.817.817 0 01.658-.808zm9.957 44.487h-3.266v-2.074c1.087.147 2.176.247 3.266.32v1.754zm9.799 0h-3.267v-1.753a48.55 48.55 0 003.267-.32v2.073zm2.449-4.813a.808.808 0 01-.654.805 46.98 46.98 0 01-16.655 0 .808.808 0 01-.655-.805v-1.473c2.98.38 5.98.573 8.982.58a72.31 72.31 0 008.982-.58v1.473zm4.243-3.773h-.001a69.29 69.29 0 01-3.423.56h-.002l-.01.001a70.635 70.635 0 01-19.577 0l-.01-.001h-.002a74.709 74.709 0 01-3.424-.56.817.817 0 01-.657-.808v-.723a86.462 86.462 0 0013.881 1.129c4.65-.002 9.292-.38 13.88-1.129v.722a.816.816 0 01-.655.809z" fill="#27AE60"/><path d="M24.517 31.537c6.765 0 12.248-5.484 12.248-12.248 0-6.764-5.483-12.248-12.248-12.248-6.764 0-12.247 5.484-12.247 12.248.007 6.76 5.486 12.24 12.247 12.247zm0-22.863c5.863 0 10.615 4.753 10.615 10.615S30.38 29.903 24.517 29.903c-5.862 0-10.614-4.752-10.614-10.614.006-5.86 4.755-10.608 10.614-10.615z" fill="#F7F896"/><path d="M19.618 20.105h2.784l-.67 7.651v.003c-.051.559.287 1.08.818 1.259.133.046.273.07.414.07.402.002.777-.199.998-.534l6.124-8.799a.817.817 0 00-.67-1.283h-2.783l.669-7.654a1.224 1.224 0 00-2.23-.794l-6.124 8.798a.817.817 0 00.67 1.283zm5.923-7.898l-.612 7.011a.817.817 0 00.813.887h2.111l-4.36 6.266.613-7.011a.816.816 0 00-.814-.888h-2.111l4.36-6.265z" fill="#F7F896"/><path d="M15.536 29.904a2.45 2.45 0 100 4.899 2.45 2.45 0 000-4.9zm0 3.266a.817.817 0 110-1.634.817.817 0 010 1.634zm17.963-3.266a2.45 2.45 0 100 4.899 2.45 2.45 0 000-4.9zm0 3.266a.817.817 0 110-1.634.817.817 0 010 1.634zm-10.615 0h-1.633a.816.816 0 000 1.633h1.633a.817.817 0 100-1.633zm4.899 0H26.15a.816.816 0 000 1.633h1.633a.817.817 0 100-1.633z" fill="#27AE60"/></g><defs><clipPath id="clip0"><path fill="#fff" transform="translate(0 .5)" d="M0 0h49v49H0z"/></clipPath></defs></svg>