<svg width="50" height="50" fill="none" xmlns="http://www.w3.org/2000/svg"><g clip-path="url(#clip0)"><path d="M.488 4.995l3.268 5.718c.11.194.295.334.51.388l3.05.762L17.771 22.32l1.155-1.156-10.62-10.62a.815.815 0 00-.379-.215l-2.93-.735-2.782-4.871 2.386-2.386 4.873 2.785.736 2.93c.035.144.11.275.214.38l10.62 10.62 1.156-1.155L11.744 7.44l-.762-3.047a.818.818 0 00-.387-.512L4.875.614a.817.817 0 00-.98.131L.629 4.013a.817.817 0 00-.14.982z" fill="#F7F896"/><path d="M34.453 16.6L16.48 34.574l-1.155-1.155 17.973-17.972 1.155 1.155zM13.335 35.21a.816.816 0 00-.7-.397H7.732a.816.816 0 00-.7.396l-2.451 4.085a.817.817 0 000 .841l2.45 4.085a.817.817 0 00.7.396h4.902c.287 0 .553-.15.7-.396l2.451-4.085a.817.817 0 000-.841l-2.45-4.085zm-1.163 7.772H8.195l-1.96-3.267 1.96-3.268h3.977l1.96 3.268-1.96 3.267z" fill="#27AE60"/><path fill-rule="evenodd" clip-rule="evenodd" d="M49.396 10.371c-.018 5.396-4.407 9.755-9.803 9.737a9.608 9.608 0 01-1.914-.198l-4.283 4.283-1.155 1.155-7.022 7.01-1.148 1.16-4.283 4.282c.13.63.197 1.271.199 1.915 0 5.414-4.39 9.803-9.803 9.803-5.415 0-9.804-4.39-9.804-9.803 0-5.415 4.39-9.804 9.804-9.804a9.646 9.646 0 011.914.199l17.89-17.891a9.75 9.75 0 01.1-4.343c1.326-5.232 6.642-8.4 11.874-7.075a.817.817 0 01.384 1.371L37.26 7.26l1.346 4.034 4.035 1.344 5.085-5.082a.817.817 0 011.37.38 9.77 9.77 0 01.3 2.436zM18.315 36.964l18.532-18.529h-.004a.818.818 0 01.776-.215 8.128 8.128 0 0010.129-8.38l-4.31 4.31a.817.817 0 01-.835.197l-4.902-1.634a.818.818 0 01-.517-.516L35.55 7.295a.816.816 0 01.198-.835l4.31-4.311a8.13 8.13 0 00-8.38 10.13.816.816 0 01-.215.776l-18.53 18.529a.824.824 0 01-.776.215 8.224 8.224 0 105.94 5.941.818.818 0 01.217-.776z" fill="#27AE60"/><path fill-rule="evenodd" clip-rule="evenodd" d="M24.071 33.517l1.874 1.873a.817.817 0 001.155 0l.408-.408a.915.915 0 011.297 1.294l-.001.002-.409.408a.817.817 0 000 1.155l9.746 9.745a6.593 6.593 0 109.366-9.282l-.042-.042-9.745-9.745a.817.817 0 00-1.155 0l-.408.408a.915.915 0 01-1.297-1.294v-.001l.41-.409a.817.817 0 000-1.155l-1.874-1.873-1.155 1.155 1.307 1.304a2.55 2.55 0 003.594 3.59l9.168 9.175c.1.1.193.205.283.312l-6.985 6.985a4.805 4.805 0 01-.312-.283l-9.175-9.175a2.55 2.55 0 00-3.595-3.59l-1.307-1.307-1.148 1.158zm16.995 14.05a4.963 4.963 0 003.486 0 4.954 4.954 0 002.894-6.38l-6.38 6.38z" fill="#F7F896"/><path d="M42.623 41.587l-1.156 1.156-8.169-8.17 1.155-1.155 8.17 8.17z" fill="#F7F896"/></g><defs><clipPath id="clip0"><path fill="#fff" transform="translate(.333 .5)" d="M0 0h49v49H0z"/></clipPath></defs></svg>