<svg width="50" height="50" fill="none" xmlns="http://www.w3.org/2000/svg"><g clip-path="url(#clip0)"><path fill-rule="evenodd" clip-rule="evenodd" d="M12.141 31.552h1.39a3.265 3.265 0 003.265 3.267H35.05a1.225 1.225 0 110 2.45H14.78a3.266 3.266 0 00-3.267 3.267h1.633c0-.903.731-1.634 1.633-1.634h20.27a2.858 2.858 0 100-5.716H16.797a1.633 1.633 0 01-1.633-1.634h23.11l-.286-1.633h-7.88v-8.983a3.27 3.27 0 00-3.266-3.267h-3.266a3.27 3.27 0 00-3.267 3.267v8.983H12.62l-.479 1.633zm9.8-1.633h6.533v-8.983a1.635 1.635 0 00-1.633-1.633h-3.266a1.635 1.635 0 00-1.634 1.633v8.983z" fill="#27AE60"/><path fill-rule="evenodd" clip-rule="evenodd" d="M9.692 17.14l1.633.892v-2.265a.863.863 0 01.341-.696L24.74 5.577a.774.774 0 01.944.005l13.056 9.482a.869.869 0 01.352.703v2.265l1.633-.892v-1.373a2.494 2.494 0 00-1.015-2.017L26.65 4.266a2.403 2.403 0 00-2.878-.005l-13.075 9.497a2.487 2.487 0 00-1.005 2.009v1.374z" fill="#27AE60"/><path fill-rule="evenodd" clip-rule="evenodd" d="M4.818 26.583h.79V17.6a1.635 1.635 0 011.634-1.634h3.266a1.635 1.635 0 011.633 1.633v8.984h.79a1.641 1.641 0 011.497.959 1.707 1.707 0 01-.24 1.835l-2.863 3.376-1.633 1.753a1.689 1.689 0 01-2.074-.347l-4.062-4.788a1.704 1.704 0 01-.234-1.83c.267-.585.852-.96 1.496-.958zm8.125 1.737l-4.057 4.783-4.08-4.783.009-.106 1.525.002h.085a.817.817 0 00.817-.817v-9.8h3.266v9.8c0 .451.366.817.817.817h1.607l.01.104zm29.075-12.354h1.156a1.635 1.635 0 011.633 1.633v8.984h.79a1.641 1.641 0 011.497.959 1.706 1.706 0 01-.24 1.835l-4.055 4.78a1.69 1.69 0 01-2.075.35l-1.633-1.754-2.869-3.382a1.704 1.704 0 01-.234-1.83c.267-.585.852-.96 1.496-.958h.79v-8.984a1.635 1.635 0 011.633-1.633h2.112zm3.59 12.354l-4.056 4.783-4.08-4.783.008-.106 1.525.002h.086c.45 0 .816-.366.816-.817v-9.8h3.267v9.8c0 .451.365.817.816.817h1.608l.01.104z" fill="#F7F896"/><path d="M14.592 17.67c.18 0 .354-.06.497-.17l8.232-6.328a.817.817 0 00-.995-1.296l-8.233 6.33a.817.817 0 00.5 1.463zm11.432-8.984a.817.817 0 11-1.633 0 .817.817 0 011.633 0z" fill="#27AE60"/><rect x="10.233" y="40.9" width="29.2" height="6.2" rx="1.1" stroke="#27AE60" stroke-width="1.8"/></g><defs><clipPath id="clip0"><path fill="#fff" transform="translate(.667 .5)" d="M0 0h49v49H0z"/></clipPath></defs></svg>