<svg width="10" height="16" fill="none" xmlns="http://www.w3.org/2000/svg"><path d="M9.691 9.763c.364-.363.416-.882.104-1.402-.26-.415-.727-.623-1.246-.52a1.755 1.755 0 00-.623.312c-1.61 1.091-3.792 1.04-5.402-.052l-.312-.155c-.57-.26-1.142-.156-1.454.363-.363.52-.311 1.09.156 1.558.104.104.208.156.26.26l.052.052c.727.571 1.61.935 2.752 1.09l-.675.676-1.766 1.766c-.156.155-.363.415-.363.779 0 .467.26.935.727 1.142.156.104.311.104.467.104.26 0 .572-.104.78-.363.778-.78 1.402-1.403 2.025-2.026l.052-.052s.052 0 .052.052c.415.468.883.883 1.298 1.35l.623.624c.26.26.468.363.78.363.467.052.986-.26 1.194-.727a1.04 1.04 0 00-.26-1.246c-.519-.52-1.038-1.091-1.61-1.61l-.883-.883c.468-.052.987-.156 1.455-.364.779-.26 1.35-.623 1.817-1.09z" fill="#798797"/><path d="M5.225 8.31c2.233 0 4.051-1.767 4.051-4 0-1.09-.416-2.13-1.195-2.908C7.302.622 6.316.207 5.277.207c-2.234 0-4 1.818-4.051 4 0 1.09.415 2.077 1.194 2.856.727.83 1.714 1.246 2.805 1.246zM4.082 3.115a1.611 1.611 0 011.143-.468c.935 0 1.61.727 1.61 1.61 0 .935-.727 1.61-1.61 1.61-.935 0-1.61-.727-1.61-1.61 0-.415.156-.83.467-1.142z" fill="#798797"/><path d="M9.691 9.763c.364-.363.416-.882.104-1.402-.26-.415-.727-.623-1.246-.52a1.755 1.755 0 00-.623.312c-1.61 1.091-3.792 1.04-5.402-.052l-.312-.155c-.57-.26-1.142-.156-1.454.363-.363.52-.311 1.09.156 1.558.104.104.208.156.26.26l.052.052c.727.571 1.61.935 2.752 1.09l-.675.676-1.766 1.766c-.156.155-.363.415-.363.779 0 .467.26.935.727 1.142.156.104.311.104.467.104.26 0 .572-.104.78-.363.778-.78 1.402-1.403 2.025-2.026l.052-.052s.052 0 .052.052c.415.468.883.883 1.298 1.35l.623.624c.26.26.468.363.78.363.467.052.986-.26 1.194-.727a1.04 1.04 0 00-.26-1.246c-.519-.52-1.038-1.091-1.61-1.61l-.883-.883c.468-.052.987-.156 1.455-.364.779-.26 1.35-.623 1.817-1.09z" fill="#798797"/></svg>