<svg width="12" height="13" fill="none" xmlns="http://www.w3.org/2000/svg"><path d="M10.324.736H1.898C.946.736.22 1.461.22 2.413v8.426c0 .951.725 1.676 1.677 1.676h8.426c.951 0 1.676-.725 1.676-1.676V2.413c0-.952-.725-1.677-1.676-1.677zM6.11 10.16c1.948 0 3.533-1.54 3.533-3.397 0-.318-.045-.68-.136-.952h.997v4.802a.454.454 0 01-.453.453H2.169a.454.454 0 01-.453-.453V5.765h1.042a3.47 3.47 0 00-.136.951c-.045 1.903 1.54 3.443 3.489 3.443zm0-1.359c-1.269 0-2.265-.997-2.265-2.22 0-1.223.996-2.22 2.265-2.22 1.268 0 2.265.997 2.265 2.22 0 1.269-.997 2.22-2.265 2.22zm4.349-4.847a.503.503 0 01-.499.498H8.693a.503.503 0 01-.498-.498V2.73c0-.272.226-.499.498-.499H9.96c.272 0 .499.227.499.499v1.223z" fill="#798797"/></svg>