<svg width="14" height="12" fill="none" xmlns="http://www.w3.org/2000/svg"><path d="M14 1.715a5.991 5.991 0 01-1.594.416c.555-.347 1.04-.901 1.248-1.525-.555.347-1.109.555-1.802.693a2.726 2.726 0 00-2.01-.9 2.78 2.78 0 00-2.77 2.77c0 .209 0 .417.069.624A8.167 8.167 0 011.39.883a3.154 3.154 0 00-.346 1.386c0 .97.485 1.802 1.247 2.287a2.39 2.39 0 01-1.247-.347c0 1.317.97 2.494 2.217 2.702-.208.07-.485.07-.762.07-.208 0-.347 0-.555-.07a2.766 2.766 0 002.633 1.94c-.97.762-2.148 1.178-3.464 1.178-.208 0-.416 0-.693-.07 1.247.763 2.702 1.248 4.296 1.248 5.127 0 7.898-4.226 7.898-7.899v-.346c.555-.208 1.04-.693 1.386-1.247z" fill="#798797"/></svg>