<svg width="15" height="15" fill="none" xmlns="http://www.w3.org/2000/svg"><path d="M12.87 2.137A7.225 7.225 0 007.75.015C3.745.015.5 3.248.5 7.24a7.31 7.31 0 00.964 3.587L.45 14.565l3.853-1.01a7.411 7.411 0 003.447.859c4.005 0 7.25-3.234 7.25-7.225-.05-1.87-.76-3.688-2.13-5.052zm-1.622 7.68c-.152.403-.861.807-1.216.858-.305.05-.71.05-1.116-.05-.253-.101-.608-.203-1.014-.405-1.825-.757-2.99-2.576-3.092-2.728-.102-.1-.76-.96-.76-1.869 0-.91.456-1.314.608-1.516.152-.202.355-.202.507-.202h.355c.101 0 .253-.05.405.303.152.354.507 1.263.558 1.314.05.101.05.202 0 .303a1.05 1.05 0 01-.203.303c-.101.101-.203.253-.253.303-.102.101-.203.202-.102.354.102.202.456.758 1.014 1.263.71.606 1.268.808 1.47.91.203.1.305.05.406-.051.101-.101.456-.505.558-.707.101-.203.253-.152.405-.102.152.051 1.065.506 1.217.607.203.1.304.151.355.202.05.151.05.505-.102.91z" fill="#27AE60"/></svg>