<svg width="16" height="14" fill="none" xmlns="http://www.w3.org/2000/svg"><path d="M16 5.428c0-.388-.058-.84-.058-1.358a98.674 98.674 0 00-.176-1.487c-.116-.517-.291-.905-.642-1.228a1.9 1.9 0 00-1.11-.582C12.673.58 10.687.515 8 .515c-2.686 0-4.73.064-6.015.258a1.9 1.9 0 00-1.11.582 2.653 2.653 0 00-.641 1.228A5.705 5.705 0 00.058 4.07C0 4.587 0 5.04 0 5.428v2.974c0 .387.058.84.058 1.357.059.517.117 1.034.176 1.487.116.517.292.905.642 1.228a1.9 1.9 0 001.11.582c1.342.194 3.328.259 6.014.259 2.686 0 4.73-.065 6.015-.259a1.9 1.9 0 001.11-.582c.291-.323.525-.71.641-1.228.117-.453.176-.905.176-1.487C16 9.242 16 8.79 16 8.402V5.428zm-4.905 2.004L6.482 10.6a.425.425 0 01-.292.129c-.117 0-.175 0-.292-.065a.697.697 0 01-.292-.582v-6.4c0-.258.117-.452.292-.581a.488.488 0 01.584 0l4.613 3.167c.175.13.292.323.292.517s-.117.518-.292.647z" fill="#748191"/></svg>