<svg width="54" height="16" fill="none" xmlns="http://www.w3.org/2000/svg"><path d="M48 .5H37.7c.6 3.4 3.9 6.6 7.5 6.6h8.2c.1-.3.1-.8.1-1.1C53.5 3 51 .5 48 .5z" fill="#fff"/><path d="M38.6 7.7V16h5v-4.4H48c2.4 0 4.5-1.7 5.2-3.9H38.6zM21 .5v15.4h4.4s1.1 0 1.7-1.1c3-5.9 3.9-7.7 3.9-7.7h.6v8.8h5V.5h-4.4s-1.1.1-1.7 1.1c-2.5 5.1-3.9 7.7-3.9 7.7H26V.5h-5zM0 16V.6h5s1.4 0 2.2 2.2c2 5.8 2.2 6.6 2.2 6.6s.4-1.4 2.2-6.6C12.4.6 13.8.6 13.8.6h5V16h-5V7.7h-.6L10.4 16H8.2L5.4 7.7h-.6V16H0z" fill="#798797"/></svg>