<svg width="33" height="28" fill="none" xmlns="http://www.w3.org/2000/svg"><path d="M13 .481v2.3a11.803 11.803 0 00-4.35-.833A11.622 11.622 0 00.4 5.364l5.55 5.55H7.8v1.85a7.791 7.791 0 005.183 2.267v3.783H8v5c0 1.834 1.5 3.334 3.333 3.334H28c2.767 0 5-2.234 5-5V.48H13zm-1.85 10.683V7.581h-3.8L5.617 5.848A8.45 8.45 0 018.65 5.28c2.233 0 4.317.867 5.9 2.433l2.35 2.35-.333.334a4.501 4.501 0 01-3.2 1.333c-.784 0-1.55-.2-2.217-.567zm18.517 10.984c0 .916-.75 1.666-1.667 1.666s-1.667-.75-1.667-1.666v-3.334h-10v-4.316a7.763 7.763 0 002.6-1.717l.334-.333 4.716 4.7h2.35v-2.35l-10-9.95V3.814h13.334v18.334z" fill="#BB8E34"/></svg>