<svg width="40" height="41" fill="none" xmlns="http://www.w3.org/2000/svg"><path d="M31.667 24.148V10.814c0-1.833-1.5-3.333-3.334-3.333H5a3.343 3.343 0 00-3.333 3.333v13.334c0 1.833 1.5 3.333 3.333 3.333h23.333c1.834 0 3.334-1.5 3.334-3.333zm-3.334 0H5V10.814h23.333v13.334zM16.667 12.48c-2.767 0-5 2.233-5 5s2.233 5 5 5c2.766 0 5-2.233 5-5s-2.234-5-5-5zm21.666 0v18.333c0 1.834-1.5 3.334-3.333 3.334H6.667v-3.334H35V12.481h3.333z" fill="#BB8E34"/><path d="M31.667 24.148V10.814c0-1.833-1.5-3.333-3.334-3.333H5a3.343 3.343 0 00-3.333 3.333v13.334c0 1.833 1.5 3.333 3.333 3.333h23.333c1.834 0 3.334-1.5 3.334-3.333zm-3.334 0H5V10.814h23.333v13.334zM16.667 12.48c-2.767 0-5 2.233-5 5s2.233 5 5 5c2.766 0 5-2.233 5-5s-2.234-5-5-5zm21.666 0v18.333c0 1.834-1.5 3.334-3.333 3.334H6.667v-3.334H35V12.481h3.333z" fill="#BB8E34"/></svg>