<svg width="40" height="41" fill="none" xmlns="http://www.w3.org/2000/svg"><path d="M15 35.814h15a3.31 3.31 0 003.067-2.033l5.033-11.75a3.29 3.29 0 00.233-1.217v-3.333c0-1.833-1.5-3.333-3.333-3.333H24.483l1.584-7.617.05-.533c0-.684-.284-1.317-.734-1.767l-1.766-1.75-10.984 10.983c-.6.6-.966 1.434-.966 2.35v16.667c0 1.833 1.5 3.333 3.333 3.333zm0-20l7.233-7.233-2.233 8.9h15v3.333l-5 11.667H15V15.814zm-13.333 0h6.666v20H1.667v-20z" fill="#BB8E34"/><path d="M15 35.814h15a3.31 3.31 0 003.067-2.033l5.033-11.75a3.29 3.29 0 00.233-1.217v-3.333c0-1.833-1.5-3.333-3.333-3.333H24.483l1.584-7.617.05-.533c0-.684-.284-1.317-.734-1.767l-1.766-1.75-10.984 10.983c-.6.6-.966 1.434-.966 2.35v16.667c0 1.833 1.5 3.333 3.333 3.333zm0-20l7.233-7.233-2.233 8.9h15v3.333l-5 11.667H15V15.814zm-13.333 0h6.666v20H1.667v-20z" fill="#BB8E34"/></svg>