<svg width="40" height="41" fill="none" xmlns="http://www.w3.org/2000/svg"><path d="M20 2.481L5 9.148v10c0 9.25 6.4 17.9 15 20 8.6-2.1 15-10.75 15-20v-10L20 2.48zm11.667 16.667c0 7.533-4.967 14.483-11.667 16.55-6.7-2.067-11.667-9.017-11.667-16.55v-7.834L20 6.131l11.667 5.183v7.834zm-19.317.983L10 22.481l6.667 6.667L30 15.814l-2.35-2.366L16.667 24.43l-4.317-4.3z" fill="#BB8E34"/><path d="M20 2.481L5 9.148v10c0 9.25 6.4 17.9 15 20 8.6-2.1 15-10.75 15-20v-10L20 2.48zm11.667 16.667c0 7.533-4.967 14.483-11.667 16.55-6.7-2.067-11.667-9.017-11.667-16.55v-7.834L20 6.131l11.667 5.183v7.834zm-19.317.983L10 22.481l6.667 6.667L30 15.814l-2.35-2.366L16.667 24.43l-4.317-4.3z" fill="#BB8E34"/></svg>