<svg width="34" height="24" fill="none" xmlns="http://www.w3.org/2000/svg"><path d="M28.65 6H24.9V3c0-1.65-1.35-3-3-3h-18c-1.65 0-3 1.35-3 3v13.5c0 1.65 1.35 3 3 3 0 2.49 2.01 4.5 4.5 4.5s4.5-2.01 4.5-4.5h9c0 2.49 2.01 4.5 4.5 4.5s4.5-2.01 4.5-4.5h1.5c.825 0 1.5-.675 1.5-1.5v-4.995c0-.645-.21-1.275-.6-1.8L29.85 6.6a1.52 1.52 0 00-1.2-.6zM8.4 21c-.825 0-1.5-.675-1.5-1.5S7.575 18 8.4 18s1.5.675 1.5 1.5S9.225 21 8.4 21zM28.65 8.25L31.59 12H24.9V8.25h3.75zM26.4 21c-.825 0-1.5-.675-1.5-1.5s.675-1.5 1.5-1.5 1.5.675 1.5 1.5-.675 1.5-1.5 1.5z" fill="#27AE60"/></svg>