<svg width="31" height="33" fill="none" xmlns="http://www.w3.org/2000/svg"><path d="M30.505 26.255l-7.08-7.08c-.72-.72-1.485-.885-2.37-.885l-3.81 3.81c0 .885.165 1.665.885 2.37l7.08 7.08c.585.585 1.53.585 2.115 0l3.18-3.18c.585-.57.585-1.53 0-2.115z" fill="#27AE60"/><path d="M22.945 13.235c.585.585 1.53.585 2.115 0l1.065-1.065 3.18 3.18a4.5 4.5 0 000-6.36L25.06 4.745a1.494 1.494 0 00-2.115 0L21.88 5.81V2c0-.93-1.14-1.425-1.815-.75l-3.81 3.81c-.675.675-.18 1.815.75 1.815h3.81L19.75 7.94a1.494 1.494 0 000 2.115l.525.525-4.335 4.335L9.775 8.72v-1.5c0-.405-.165-.78-.435-1.065L6.31 3.11a1.494 1.494 0 00-2.115 0l-2.13 2.13a1.494 1.494 0 000 2.115l3.03 3.045c.285.285.66.435 1.065.435h1.5l6.195 6.195-1.275 1.275h-1.95c-.795 0-1.56.315-2.115.885l-7.08 7.08a1.494 1.494 0 000 2.115l3.18 3.18c.585.585 1.53.585 2.115 0l7.08-7.08c.57-.57.885-1.32.885-2.115v-1.935l7.725-7.725.525.525z" fill="#27AE60"/></svg>