<svg width="34" height="28" fill="none" xmlns="http://www.w3.org/2000/svg"><path d="M12.3 18.5c-4.005 0-12 2.01-12 6V26c0 .825.675 1.5 1.5 1.5h21c.825 0 1.5-.675 1.5-1.5v-1.5c0-3.99-7.995-6-12-6zm-6.39-9h12.795c.405 0 .735-.33.735-.735v-.03A.736.736 0 0018.705 8H18.3c0-2.22-1.215-4.125-3-5.175V4.25c0 .42-.33.75-.75.75s-.75-.33-.75-.75V2.21c-.48-.12-.975-.21-1.5-.21s-1.02.09-1.5.21v2.04c0 .42-.33.75-.75.75s-.75-.33-.75-.75V2.825C7.515 3.875 6.3 5.78 6.3 8h-.39a.736.736 0 00-.735.735v.045c0 .39.33.72.735.72zm6.39 6c2.79 0 5.115-1.92 5.79-4.5H6.51c.675 2.58 3 4.5 5.79 4.5zM31.77 5.345L33.165 4.1 32.04 2.15l-1.785.585c-.21-.165-.45-.3-.705-.405L29.175.5h-2.25l-.375 1.83c-.255.105-.495.24-.72.405l-1.77-.585-1.125 1.95 1.395 1.245c-.03.255-.03.525 0 .78L22.935 7.4l1.125 1.95 1.8-.57c.195.15.42.27.645.375l.42 1.845h2.25l.405-1.83c.24-.105.45-.225.66-.375l1.785.57 1.125-1.95-1.395-1.275c.045-.285.03-.54.015-.795zm-3.72 2.28a1.876 1.876 0 11.001-3.751 1.876 1.876 0 01-.001 3.751zm-.15 4.56l-1.275.42c-.15-.12-.315-.21-.495-.285L25.86 11h-1.605l-.27 1.305c-.18.075-.36.18-.51.285l-1.26-.42-.81 1.395.99.885a3.427 3.427 0 000 .555l-.99.915.81 1.395 1.29-.405c.15.105.3.195.465.27l.27 1.32h1.605l.285-1.305c.165-.075.33-.165.48-.27l1.275.405.81-1.395-.99-.915a3.427 3.427 0 000-.555l.99-.885-.795-1.395zm-2.85 3.9c-.735 0-1.335-.6-1.335-1.335s.6-1.335 1.335-1.335 1.335.6 1.335 1.335-.6 1.335-1.335 1.335z" fill="#27AE60"/></svg>